<svg width="1921" height="88" viewBox="0 0 1921 88" fill="none" xmlns="http://www.w3.org/2000/svg">
<g filter="url(#filter0_i_0_40)">
<rect width="1920" height="88" transform="translate(0.0476074)" fill="#F6F5F4"/>
<path d="M379.477 44.8636H388.384V53.5H384.713L384.275 49.8076C383.858 51.1288 383.114 52.1093 382.043 52.749C380.972 53.3887 379.664 53.7086 378.121 53.7086C376.716 53.7086 375.464 53.3957 374.366 52.7699C373.281 52.144 372.426 51.247 371.8 50.0788C371.188 48.9106 370.882 47.5477 370.882 45.9901C370.882 43.5007 371.626 41.5328 373.114 40.0864C374.602 38.6401 376.918 37.9169 380.061 37.9169C381.855 37.9169 383.433 38.2089 384.796 38.793C386.173 39.3772 387.341 40.2811 388.301 41.505C387.675 41.8248 386.451 42.4646 384.629 43.4242L384.108 43.7162C383.565 43.1738 382.933 42.7705 382.21 42.5063C381.486 42.2281 380.721 42.0891 379.915 42.0891C378.58 42.0891 377.585 42.4437 376.932 43.153C376.278 43.8483 375.951 44.7106 375.951 45.7397C375.951 46.8523 376.299 47.7493 376.994 48.4308C377.704 49.1123 378.781 49.453 380.228 49.453C380.854 49.453 381.459 49.3626 382.043 49.1818C382.641 49.001 383.141 48.6881 383.545 48.243H379.477V44.8636ZM394.537 45.1556C394.523 45.9901 394.516 47.2695 394.516 48.994C394.516 51.0662 394.53 52.5682 394.558 53.5H389.635L389.656 51.1427C389.684 48.556 389.697 46.5603 389.697 45.1556C389.697 43.8205 389.684 41.9291 389.656 39.4815L389.635 37.2285H394.558C394.53 39.2033 394.516 40.8166 394.516 42.0682C394.516 43.4589 394.523 44.4881 394.537 45.1556ZM402.535 53.7086C400.157 53.7086 398.405 53.1662 397.278 52.0815C396.166 50.9828 395.61 49.5434 395.61 47.7632C395.61 46.0248 396.166 44.6132 397.278 43.5285C398.405 42.4437 400.157 41.9013 402.535 41.9013C404.135 41.9013 405.47 42.1656 406.541 42.694C407.625 43.2086 408.425 43.9109 408.94 44.801C409.454 45.6772 409.712 46.6646 409.712 47.7632C409.712 49.5573 409.114 50.9967 407.918 52.0815C406.735 53.1662 404.941 53.7086 402.535 53.7086ZM402.619 50.1623C403.523 50.1623 404.197 49.9467 404.642 49.5156C405.087 49.0844 405.31 48.5073 405.31 47.7841C405.31 47.1026 405.087 46.5464 404.642 46.1152C404.197 45.6702 403.523 45.4477 402.619 45.4477C401.715 45.4477 401.054 45.6632 400.637 46.0944C400.22 46.5255 400.011 47.0887 400.011 47.7841C400.011 48.5073 400.22 49.0844 400.637 49.5156C401.054 49.9467 401.715 50.1623 402.619 50.1623ZM419.815 41.9013C420.747 41.9013 421.574 42.1864 422.298 42.7566C423.035 43.3129 423.605 44.057 424.008 44.9887C424.411 45.9066 424.613 46.8871 424.613 47.9301C424.613 48.9871 424.411 49.9606 424.008 50.8507C423.605 51.7268 423.042 52.4222 422.318 52.9368C421.595 53.4513 420.782 53.7086 419.878 53.7086C418.821 53.7086 417.903 53.4861 417.124 53.0411C416.345 52.5821 415.761 51.8659 415.372 50.8924L414.767 53.5H410.761C410.845 50.8854 410.887 48.1805 410.887 45.3851C410.887 42.5619 410.845 39.857 410.761 37.2702H415.476L415.413 39.8361C415.344 41.644 415.309 43.2573 415.309 44.6758C415.685 43.7301 416.255 43.0348 417.02 42.5897C417.799 42.1308 418.73 41.9013 419.815 41.9013ZM417.687 50.204C418.355 50.204 418.883 49.9815 419.273 49.5364C419.662 49.0914 419.857 48.5142 419.857 47.805C419.857 47.1652 419.641 46.6507 419.21 46.2613C418.793 45.8579 418.271 45.6563 417.646 45.6563C417.326 45.6563 416.992 45.7328 416.644 45.8858C416.297 46.0248 415.998 46.2613 415.747 46.595C415.497 46.9149 415.372 47.3182 415.372 47.805C415.372 48.6672 415.566 49.2861 415.956 49.6616C416.345 50.0232 416.922 50.204 417.687 50.204ZM439.24 50.0371C439.24 50.5099 439.295 50.8437 439.406 51.0384C439.518 51.2331 439.74 51.3722 440.074 51.4556L439.991 53.4166C439.546 53.4861 439.156 53.5348 438.822 53.5626C438.502 53.5904 438.071 53.6043 437.529 53.6043C436.333 53.6043 435.54 53.3401 435.151 52.8116C434.761 52.2692 434.567 51.5808 434.567 50.7464V50.2248C434.163 51.3652 433.572 52.2136 432.794 52.7699C432.029 53.3262 431.048 53.6043 429.852 53.6043C428.461 53.6043 427.411 53.3262 426.702 52.7699C426.007 52.2136 425.659 51.3861 425.659 50.2874C425.659 49.3834 425.958 48.6742 426.556 48.1596C427.154 47.645 428.079 47.2904 429.331 47.0957C428.274 46.3447 427.217 45.6911 426.16 45.1348C426.994 44.0778 427.947 43.2781 429.018 42.7358C430.089 42.1795 431.389 41.9013 432.919 41.9013C435.06 41.9013 436.646 42.3672 437.675 43.299C438.718 44.2169 439.24 45.6354 439.24 47.5546V50.0371ZM433.357 45.5728C432.647 45.5728 432.022 45.6911 431.479 45.9275C430.937 46.1639 430.45 46.5185 430.019 46.9914C430.853 46.894 431.897 46.8454 433.148 46.8454C433.663 46.8454 434.024 46.7828 434.233 46.6576C434.442 46.5325 434.546 46.3725 434.546 46.1778C434.546 46.0109 434.442 45.8719 434.233 45.7606C434.024 45.6354 433.732 45.5728 433.357 45.5728ZM431.166 50.204C431.945 50.204 432.647 50.0579 433.273 49.7659C433.899 49.4599 434.33 49.0636 434.567 48.5768V48.0344C434.233 48.2013 433.864 48.3334 433.461 48.4308C433.058 48.5142 432.571 48.5977 432.001 48.6811L431.25 48.8063C430.471 48.9593 430.082 49.2235 430.082 49.599C430.082 50.0023 430.443 50.204 431.166 50.204ZM445.815 45.1556C445.801 45.9901 445.794 47.2695 445.794 48.994C445.794 51.0662 445.808 52.5682 445.836 53.5H440.913L440.934 51.1427C440.961 48.556 440.975 46.5603 440.975 45.1556C440.975 43.8205 440.961 41.9291 440.934 39.4815L440.913 37.2285H445.836C445.808 39.2033 445.794 40.8166 445.794 42.0682C445.794 43.4589 445.801 44.4881 445.815 45.1556ZM465.016 42.7358C462.832 42.6662 460.711 42.6245 458.653 42.6106V53.5H453.438V42.6106C451.366 42.6245 449.252 42.6662 447.096 42.7358V38.355H465.016V42.7358ZM477.143 50.0371C477.143 50.5099 477.199 50.8437 477.31 51.0384C477.421 51.2331 477.644 51.3722 477.977 51.4556L477.894 53.4166C477.449 53.4861 477.059 53.5348 476.726 53.5626C476.406 53.5904 475.975 53.6043 475.432 53.6043C474.236 53.6043 473.444 53.3401 473.054 52.8116C472.665 52.2692 472.47 51.5808 472.47 50.7464V50.2248C472.067 51.3652 471.476 52.2136 470.697 52.7699C469.932 53.3262 468.951 53.6043 467.755 53.6043C466.365 53.6043 465.315 53.3262 464.605 52.7699C463.91 52.2136 463.562 51.3861 463.562 50.2874C463.562 49.3834 463.861 48.6742 464.459 48.1596C465.057 47.645 465.982 47.2904 467.234 47.0957C466.177 46.3447 465.12 45.6911 464.063 45.1348C464.898 44.0778 465.85 43.2781 466.921 42.7358C467.992 42.1795 469.292 41.9013 470.822 41.9013C472.964 41.9013 474.549 42.3672 475.578 43.299C476.621 44.2169 477.143 45.6354 477.143 47.5546V50.0371ZM471.26 45.5728C470.551 45.5728 469.925 45.6911 469.383 45.9275C468.84 46.1639 468.353 46.5185 467.922 46.9914C468.757 46.894 469.8 46.8454 471.051 46.8454C471.566 46.8454 471.928 46.7828 472.136 46.6576C472.345 46.5325 472.449 46.3725 472.449 46.1778C472.449 46.0109 472.345 45.8719 472.136 45.7606C471.928 45.6354 471.636 45.5728 471.26 45.5728ZM469.07 50.204C469.849 50.204 470.551 50.0579 471.177 49.7659C471.802 49.4599 472.234 49.0636 472.47 48.5768V48.0344C472.136 48.2013 471.768 48.3334 471.364 48.4308C470.961 48.5142 470.474 48.5977 469.904 48.6811L469.153 48.8063C468.374 48.9593 467.985 49.2235 467.985 49.599C467.985 50.0023 468.347 50.204 469.07 50.204ZM483.718 45.1556C483.705 45.9901 483.698 47.2695 483.698 48.994C483.698 51.0662 483.712 52.5682 483.739 53.5H478.816L478.837 51.1427C478.865 48.556 478.879 46.5603 478.879 45.1556C478.879 43.8205 478.865 41.9291 478.837 39.4815L478.816 37.2285H483.739C483.712 39.2033 483.698 40.8166 483.698 42.0682C483.698 43.4589 483.705 44.4881 483.718 45.1556ZM499.727 42.0891L494.554 46.8036C496.32 49.307 497.968 51.5391 499.498 53.5H493.97L492.906 51.7894C492.21 50.6351 491.751 49.8841 491.529 49.5364L489.797 51.1219V53.5H484.999C485.111 50.8576 485.166 48.1805 485.166 45.4685C485.166 42.7427 485.111 40.0099 484.999 37.2702H489.797V46.1152C491.146 44.7384 492.419 43.3964 493.615 42.0891H499.727Z" fill="black"/>
<path d="M530.048 35.5674V52.4326" stroke="#E0E0E0" stroke-width="1.20466"/>
<path d="M569.424 38.8H571.504V50H569.424V38.8ZM563.632 50H561.552V38.8H563.632V50ZM569.584 45.2H563.456V43.424H569.584V45.2ZM577.513 50.112C576.638 50.112 575.859 49.9253 575.177 49.552C574.494 49.168 573.955 48.6453 573.561 47.984C573.166 47.3227 572.969 46.5707 572.969 45.728C572.969 44.8747 573.166 44.1227 573.561 43.472C573.955 42.8107 574.494 42.2933 575.177 41.92C575.859 41.5467 576.638 41.36 577.513 41.36C578.398 41.36 579.182 41.5467 579.865 41.92C580.558 42.2933 581.097 42.8053 581.481 43.456C581.875 44.1067 582.073 44.864 582.073 45.728C582.073 46.5707 581.875 47.3227 581.481 47.984C581.097 48.6453 580.558 49.168 579.865 49.552C579.182 49.9253 578.398 50.112 577.513 50.112ZM577.513 48.4C578.003 48.4 578.441 48.2933 578.825 48.08C579.209 47.8667 579.507 47.5573 579.721 47.152C579.945 46.7467 580.057 46.272 580.057 45.728C580.057 45.1733 579.945 44.6987 579.721 44.304C579.507 43.8987 579.209 43.5893 578.825 43.376C578.441 43.1627 578.009 43.056 577.529 43.056C577.038 43.056 576.601 43.1627 576.217 43.376C575.843 43.5893 575.545 43.8987 575.321 44.304C575.097 44.6987 574.985 45.1733 574.985 45.728C574.985 46.272 575.097 46.7467 575.321 47.152C575.545 47.5573 575.843 47.8667 576.217 48.08C576.601 48.2933 577.033 48.4 577.513 48.4ZM594.129 41.36C594.812 41.36 595.415 41.4933 595.937 41.76C596.471 42.0267 596.887 42.4373 597.185 42.992C597.484 43.536 597.633 44.24 597.633 45.104V50H595.633V45.36C595.633 44.6027 595.468 44.0373 595.137 43.664C594.807 43.2907 594.332 43.104 593.713 43.104C593.276 43.104 592.887 43.2 592.545 43.392C592.215 43.584 591.953 43.8667 591.761 44.24C591.58 44.6133 591.489 45.088 591.489 45.664V50H589.489V45.36C589.489 44.6027 589.324 44.0373 588.993 43.664C588.663 43.2907 588.188 43.104 587.569 43.104C587.132 43.104 586.743 43.2 586.401 43.392C586.071 43.584 585.809 43.8667 585.617 44.24C585.436 44.6133 585.345 45.088 585.345 45.664V50H583.345V41.456H585.249V43.728L584.913 43.056C585.201 42.5013 585.617 42.08 586.161 41.792C586.716 41.504 587.345 41.36 588.049 41.36C588.849 41.36 589.543 41.5573 590.129 41.952C590.727 42.3467 591.121 42.944 591.313 43.744L590.529 43.472C590.807 42.832 591.265 42.32 591.905 41.936C592.545 41.552 593.287 41.36 594.129 41.36ZM603.581 50.112C602.631 50.112 601.799 49.9253 601.085 49.552C600.381 49.168 599.831 48.6453 599.437 47.984C599.053 47.3227 598.861 46.5707 598.861 45.728C598.861 44.8747 599.047 44.1227 599.421 43.472C599.805 42.8107 600.327 42.2933 600.989 41.92C601.661 41.5467 602.423 41.36 603.277 41.36C604.109 41.36 604.85 41.5413 605.501 41.904C606.151 42.2667 606.663 42.7787 607.037 43.44C607.41 44.1013 607.597 44.88 607.597 45.776C607.597 45.8613 607.591 45.9573 607.581 46.064C607.581 46.1707 607.575 46.272 607.565 46.368H600.445V45.04H606.509L605.725 45.456C605.735 44.9653 605.634 44.5333 605.421 44.16C605.207 43.7867 604.914 43.4933 604.541 43.28C604.178 43.0667 603.757 42.96 603.277 42.96C602.786 42.96 602.354 43.0667 601.981 43.28C601.618 43.4933 601.33 43.792 601.117 44.176C600.914 44.5493 600.813 44.992 600.813 45.504V45.824C600.813 46.336 600.93 46.7893 601.165 47.184C601.399 47.5787 601.73 47.8827 602.157 48.096C602.583 48.3093 603.074 48.416 603.629 48.416C604.109 48.416 604.541 48.3413 604.925 48.192C605.309 48.0427 605.65 47.808 605.949 47.488L607.021 48.72C606.637 49.168 606.151 49.5147 605.565 49.76C604.989 49.9947 604.327 50.112 603.581 50.112Z" fill="black"/>
<path d="M569.424 38.8V37.8H568.424V38.8H569.424ZM571.504 38.8H572.504V37.8H571.504V38.8ZM571.504 50V51H572.504V50H571.504ZM569.424 50H568.424V51H569.424V50ZM563.632 50V51H564.632V50H563.632ZM561.552 50H560.552V51H561.552V50ZM561.552 38.8V37.8H560.552V38.8H561.552ZM563.632 38.8H564.632V37.8H563.632V38.8ZM569.584 45.2V46.2H570.584V45.2H569.584ZM563.456 45.2H562.456V46.2H563.456V45.2ZM563.456 43.424V42.424H562.456V43.424H563.456ZM569.584 43.424H570.584V42.424H569.584V43.424ZM569.424 39.8H571.504V37.8H569.424V39.8ZM570.504 38.8V50H572.504V38.8H570.504ZM571.504 49H569.424V51H571.504V49ZM570.424 50V38.8H568.424V50H570.424ZM563.632 49H561.552V51H563.632V49ZM562.552 50V38.8H560.552V50H562.552ZM561.552 39.8H563.632V37.8H561.552V39.8ZM562.632 38.8V50H564.632V38.8H562.632ZM569.584 44.2H563.456V46.2H569.584V44.2ZM564.456 45.2V43.424H562.456V45.2H564.456ZM563.456 44.424H569.584V42.424H563.456V44.424ZM568.584 43.424V45.2H570.584V43.424H568.584ZM575.177 49.552L574.686 50.4236L574.697 50.4294L575.177 49.552ZM573.561 47.984L572.702 48.4965L572.702 48.4965L573.561 47.984ZM573.561 43.472L574.416 43.9906L574.419 43.9845L573.561 43.472ZM575.177 41.92L575.657 42.7974L575.657 42.7974L575.177 41.92ZM579.865 41.92L579.385 42.7974L579.391 42.8005L579.865 41.92ZM581.481 43.456L580.619 43.9643L580.626 43.9746L581.481 43.456ZM581.481 47.984L580.622 47.4715L580.616 47.4819L581.481 47.984ZM579.865 49.552L580.345 50.4294L580.349 50.4268L579.865 49.552ZM578.825 48.08L578.339 47.2058L578.339 47.2058L578.825 48.08ZM579.721 47.152L578.845 46.6683L578.841 46.6772L578.836 46.6863L579.721 47.152ZM579.721 44.304L578.836 44.7697L578.843 44.7838L578.851 44.7976L579.721 44.304ZM578.825 43.376L579.31 42.5018L579.31 42.5018L578.825 43.376ZM576.217 43.376L575.731 42.5018L575.721 42.5078L576.217 43.376ZM575.321 44.304L576.19 44.7976L576.196 44.7877L575.321 44.304ZM575.321 47.152L574.445 47.6357L574.445 47.6357L575.321 47.152ZM576.217 48.08L575.721 48.9483L575.731 48.9542L576.217 48.08ZM577.513 49.112C576.785 49.112 576.175 48.9579 575.657 48.6746L574.697 50.4294C575.544 50.8927 576.492 51.112 577.513 51.112V49.112ZM575.667 48.6804C575.134 48.3804 574.723 47.9804 574.419 47.4715L572.702 48.4965C573.188 49.3102 573.854 49.9556 574.686 50.4236L575.667 48.6804ZM574.419 47.4715C574.126 46.9795 573.969 46.4078 573.969 45.728H571.969C571.969 46.7336 572.206 47.6658 572.702 48.4965L574.419 47.4715ZM573.969 45.728C573.969 45.0348 574.127 44.4665 574.416 43.9906L572.706 42.9534C572.205 43.7788 571.969 44.7146 571.969 45.728H573.969ZM574.419 43.9845C574.722 43.4781 575.129 43.086 575.657 42.7974L574.697 41.0426C573.859 41.5007 573.189 42.1433 572.702 42.9595L574.419 43.9845ZM575.657 42.7974C576.175 42.5141 576.785 42.36 577.513 42.36V40.36C576.492 40.36 575.544 40.5793 574.697 41.0426L575.657 42.7974ZM577.513 42.36C578.254 42.36 578.869 42.515 579.385 42.7974L580.345 41.0426C579.495 40.5783 578.542 40.36 577.513 40.36V42.36ZM579.391 42.8005C579.931 43.0912 580.332 43.4774 580.62 43.9643L582.342 42.9477C581.861 42.1332 581.186 41.4955 580.339 41.0395L579.391 42.8005ZM580.626 43.9746C580.913 44.4486 581.073 45.0216 581.073 45.728H583.073C583.073 44.7064 582.838 43.7647 582.336 42.9374L580.626 43.9746ZM581.073 45.728C581.073 46.4078 580.916 46.9795 580.622 47.4715L582.339 48.4965C582.835 47.6658 583.073 46.7336 583.073 45.728H581.073ZM580.616 47.4819C580.326 47.981 579.921 48.3774 579.38 48.6772L580.349 50.4268C581.195 49.9586 581.867 49.3096 582.346 48.4861L580.616 47.4819ZM579.385 48.6746C578.869 48.957 578.254 49.112 577.513 49.112V51.112C578.542 51.112 579.495 50.8937 580.345 50.4294L579.385 48.6746ZM577.513 49.4C578.153 49.4 578.761 49.2593 579.31 48.9542L578.339 47.2058C578.12 47.3273 577.854 47.4 577.513 47.4V49.4ZM579.31 48.9542C579.872 48.6422 580.306 48.1874 580.606 47.6177L578.836 46.6863C578.709 46.9273 578.546 47.0911 578.339 47.2058L579.31 48.9542ZM580.596 47.6357C580.915 47.0583 581.057 46.4115 581.057 45.728H579.057C579.057 46.1325 578.974 46.435 578.845 46.6683L580.596 47.6357ZM581.057 45.728C581.057 45.0385 580.917 44.3856 580.59 43.8104L578.851 44.7976C578.973 45.0117 579.057 45.3082 579.057 45.728H581.057ZM580.606 43.8383C580.306 43.2686 579.872 42.8138 579.31 42.5018L578.339 44.2502C578.546 44.3649 578.709 44.5287 578.836 44.7697L580.606 43.8383ZM579.31 42.5018C578.764 42.1985 578.163 42.056 577.529 42.056V44.056C577.855 44.056 578.117 44.1269 578.339 44.2502L579.31 42.5018ZM577.529 42.056C576.888 42.056 576.28 42.1967 575.731 42.5018L576.702 44.2502C576.921 44.1287 577.188 44.056 577.529 44.056V42.056ZM575.721 42.5078C575.176 42.8191 574.751 43.2673 574.445 43.8203L576.196 44.7877C576.338 44.53 576.511 44.3596 576.713 44.2442L575.721 42.5078ZM574.451 43.8104C574.125 44.3856 573.985 45.0385 573.985 45.728H575.985C575.985 45.3082 576.069 45.0117 576.19 44.7976L574.451 43.8104ZM573.985 45.728C573.985 46.4115 574.126 47.0583 574.445 47.6357L576.196 46.6683C576.067 46.435 575.985 46.1325 575.985 45.728H573.985ZM574.445 47.6357C574.751 48.1887 575.176 48.6369 575.721 48.9482L576.713 47.2118C576.511 47.0964 576.338 46.926 576.196 46.6683L574.445 47.6357ZM575.731 48.9542C576.277 49.2575 576.879 49.4 577.513 49.4V47.4C577.187 47.4 576.924 47.3291 576.702 47.2058L575.731 48.9542ZM595.937 41.76L595.483 42.6508L595.49 42.6544L595.937 41.76ZM597.185 42.992L596.305 43.4661L596.309 43.4733L597.185 42.992ZM597.633 50V51H598.633V50H597.633ZM595.633 50H594.633V51H595.633V50ZM595.137 43.664L595.886 43.001L595.886 43.001L595.137 43.664ZM592.545 43.392L592.055 42.5203L592.043 42.5272L592.545 43.392ZM591.761 44.24L590.872 43.7827L590.867 43.7928L590.862 43.8031L591.761 44.24ZM591.489 50V51H592.489V50H591.489ZM589.489 50H588.489V51H589.489V50ZM588.993 43.664L589.742 43.001L589.742 43.001L588.993 43.664ZM586.401 43.392L585.911 42.5203L585.899 42.5272L586.401 43.392ZM585.617 44.24L584.728 43.7827L584.723 43.7928L584.718 43.8031L585.617 44.24ZM585.345 50V51H586.345V50H585.345ZM583.345 50H582.345V51H583.345V50ZM583.345 41.456V40.456H582.345V41.456H583.345ZM585.249 41.456H586.249V40.456H585.249V41.456ZM585.249 43.728L584.355 44.1752L586.249 43.728H585.249ZM584.913 43.056L584.026 42.5952L583.791 43.0474L584.019 43.5032L584.913 43.056ZM586.161 41.792L585.7 40.9045L585.693 40.9082L586.161 41.792ZM590.129 41.952L589.571 42.7818L589.578 42.7863L590.129 41.952ZM591.313 43.744L590.985 44.6888L592.712 45.2878L592.286 43.5106L591.313 43.744ZM590.529 43.472L589.612 43.0744L589.183 44.0634L590.201 44.4168L590.529 43.472ZM591.905 41.936L592.42 42.7935L592.42 42.7935L591.905 41.936ZM594.129 42.36C594.68 42.36 595.122 42.4668 595.483 42.6508L596.392 40.8692C595.707 40.5199 594.944 40.36 594.129 40.36V42.36ZM595.49 42.6544C595.828 42.8236 596.098 43.082 596.305 43.4661L598.066 42.5179C597.675 41.7927 597.113 41.2297 596.384 40.8656L595.49 42.6544ZM596.309 43.4733C596.501 43.8232 596.633 44.3457 596.633 45.104H598.633C598.633 44.1343 598.467 43.2488 598.062 42.5107L596.309 43.4733ZM596.633 45.104V50H598.633V45.104H596.633ZM597.633 49H595.633V51H597.633V49ZM596.633 50V45.36H594.633V50H596.633ZM596.633 45.36C596.633 44.4808 596.444 43.6317 595.886 43.001L594.389 44.327C594.491 44.4429 594.633 44.7246 594.633 45.36H596.633ZM595.886 43.001C595.321 42.3633 594.544 42.104 593.713 42.104V44.104C594.12 44.104 594.292 44.218 594.389 44.327L595.886 43.001ZM593.713 42.104C593.125 42.104 592.563 42.2347 592.055 42.5204L593.035 44.2636C593.21 44.1653 593.427 44.104 593.713 44.104V42.104ZM592.043 42.5272C591.531 42.8245 591.143 43.2566 590.872 43.7827L592.651 44.6973C592.764 44.4768 592.898 44.3435 593.047 44.2568L592.043 42.5272ZM590.862 43.8031C590.594 44.3548 590.489 44.9919 590.489 45.664H592.489C592.489 45.1841 592.566 44.8719 592.661 44.6769L590.862 43.8031ZM590.489 45.664V50H592.489V45.664H590.489ZM591.489 49H589.489V51H591.489V49ZM590.489 50V45.36H588.489V50H590.489ZM590.489 45.36C590.489 44.4808 590.3 43.6317 589.742 43.001L588.245 44.327C588.347 44.4429 588.489 44.7246 588.489 45.36H590.489ZM589.742 43.001C589.177 42.3633 588.4 42.104 587.569 42.104V44.104C587.976 44.104 588.148 44.218 588.245 44.327L589.742 43.001ZM587.569 42.104C586.981 42.104 586.419 42.2347 585.911 42.5204L586.891 44.2636C587.066 44.1653 587.283 44.104 587.569 44.104V42.104ZM585.899 42.5272C585.387 42.8245 584.999 43.2566 584.728 43.7827L586.507 44.6973C586.62 44.4768 586.754 44.3435 586.903 44.2568L585.899 42.5272ZM584.718 43.8031C584.45 44.3548 584.345 44.9919 584.345 45.664H586.345C586.345 45.1841 586.422 44.8719 586.517 44.6769L584.718 43.8031ZM584.345 45.664V50H586.345V45.664H584.345ZM585.345 49H583.345V51H585.345V49ZM584.345 50V41.456H582.345V50H584.345ZM583.345 42.456H585.249V40.456H583.345V42.456ZM584.249 41.456V43.728H586.249V41.456H584.249ZM586.144 43.2808L585.808 42.6088L584.019 43.5032L584.355 44.1752L586.144 43.2808ZM585.801 43.5168C585.997 43.1395 586.268 42.8672 586.629 42.6758L585.693 40.9082C584.967 41.2928 584.406 41.8631 584.026 42.5952L585.801 43.5168ZM586.622 42.6795C587.017 42.4743 587.485 42.36 588.049 42.36V40.36C587.205 40.36 586.415 40.5337 585.7 40.9045L586.622 42.6795ZM588.049 42.36C588.677 42.36 589.17 42.5122 589.571 42.7817L590.687 41.1223C589.915 40.6024 589.021 40.36 588.049 40.36V42.36ZM589.578 42.7863C589.932 43.0204 590.199 43.3844 590.341 43.9774L592.286 43.5106C592.044 42.5036 591.521 41.6729 590.68 41.1177L589.578 42.7863ZM591.641 42.7992L590.857 42.5272L590.201 44.4168L590.985 44.6888L591.641 42.7992ZM591.447 43.8696C591.635 43.435 591.946 43.078 592.42 42.7935L591.391 41.0785C590.585 41.562 589.978 42.229 589.612 43.0744L591.447 43.8696ZM592.42 42.7935C592.885 42.5143 593.444 42.36 594.129 42.36V40.36C593.129 40.36 592.205 40.5897 591.391 41.0785L592.42 42.7935ZM601.085 49.552L600.606 50.4299L600.614 50.4342L600.622 50.4383L601.085 49.552ZM599.437 47.984L598.572 48.4862L598.578 48.4965L599.437 47.984ZM599.421 43.472L598.556 42.9699L598.553 42.9743L599.421 43.472ZM600.989 41.92L600.503 41.0458L600.497 41.0492L600.989 41.92ZM605.501 41.904L605.987 41.0305L605.987 41.0305L605.501 41.904ZM607.581 46.064L606.586 45.9645L606.581 46.0141V46.064H607.581ZM607.565 46.368V47.368H608.46L608.558 46.4784L607.565 46.368ZM600.445 46.368H599.445V47.368H600.445V46.368ZM600.445 45.04V44.04H599.445V45.04H600.445ZM606.509 45.04L606.977 45.9233L606.509 44.04V45.04ZM605.725 45.456L604.725 45.4343L604.688 47.1382L606.193 46.3393L605.725 45.456ZM605.421 44.16L604.552 44.6561L604.552 44.6561L605.421 44.16ZM604.541 43.28L604.034 44.142L604.044 44.1482L604.541 43.28ZM601.981 43.28L601.484 42.4117L601.474 42.4181L601.981 43.28ZM601.117 44.176L600.242 43.6903L600.238 43.6989L601.117 44.176ZM602.157 48.096L601.709 48.9904L601.709 48.9904L602.157 48.096ZM604.925 48.192L605.287 49.124L605.287 49.124L604.925 48.192ZM605.949 47.488L606.703 46.8316L605.975 45.9945L605.218 46.8057L605.949 47.488ZM607.021 48.72L607.78 49.3708L608.342 48.7151L607.775 48.0636L607.021 48.72ZM605.565 49.76L605.942 50.6861L605.95 50.6826L605.565 49.76ZM603.581 49.112C602.764 49.112 602.096 48.9521 601.548 48.6657L600.622 50.4383C601.503 50.8985 602.499 51.112 603.581 51.112V49.112ZM601.563 48.6741C601.01 48.3721 600.594 47.9728 600.295 47.4715L598.578 48.4965C599.068 49.3179 599.752 49.9639 600.606 50.4299L601.563 48.6741ZM600.301 47.4819C600.015 46.9883 599.861 46.4128 599.861 45.728H597.861C597.861 46.7286 598.09 47.6571 598.572 48.4861L600.301 47.4819ZM599.861 45.728C599.861 45.0249 600.013 44.449 600.288 43.9697L598.553 42.9743C598.082 43.7963 597.861 44.7245 597.861 45.728H599.861ZM600.285 43.9741C600.581 43.4656 600.975 43.076 601.48 42.7908L600.497 41.0492C599.68 41.5106 599.029 42.1557 598.556 42.9699L600.285 43.9741ZM601.474 42.7942C601.982 42.5122 602.574 42.36 603.277 42.36V40.36C602.272 40.36 601.339 40.5812 600.503 41.0458L601.474 42.7942ZM603.277 42.36C603.959 42.36 604.529 42.5071 605.014 42.7775L605.987 41.0305C605.171 40.5755 604.259 40.36 603.277 40.36V42.36ZM605.014 42.7775C605.5 43.0488 605.881 43.4272 606.166 43.9316L607.907 42.9484C607.446 42.1302 606.802 41.4846 605.987 41.0305L605.014 42.7775ZM606.166 43.9316C606.44 44.418 606.597 45.0211 606.597 45.776H608.597C608.597 44.7389 608.38 43.7847 607.907 42.9484L606.166 43.9316ZM606.597 45.776C606.597 45.821 606.594 45.8829 606.586 45.9645L608.576 46.1635C608.589 46.0317 608.597 45.9017 608.597 45.776H606.597ZM606.581 46.064C606.581 46.1375 606.577 46.2018 606.571 46.2576L608.558 46.4784C608.574 46.3422 608.581 46.2038 608.581 46.064H606.581ZM607.565 45.368H600.445V47.368H607.565V45.368ZM601.445 46.368V45.04H599.445V46.368H601.445ZM600.445 46.04H606.509V44.04H600.445V46.04ZM606.04 44.1567L605.256 44.5727L606.193 46.3393L606.977 45.9233L606.04 44.1567ZM606.724 45.4777C606.738 44.8319 606.604 44.216 606.289 43.6639L604.552 44.6561C604.664 44.8507 604.732 45.0988 604.725 45.4343L606.724 45.4777ZM606.289 43.6639C605.987 43.1355 605.565 42.7137 605.037 42.4118L604.044 44.1482C604.263 44.273 604.428 44.4378 604.552 44.6561L606.289 43.6639ZM605.048 42.4181C604.511 42.1022 603.909 41.96 603.277 41.96V43.96C603.604 43.96 603.845 44.0311 604.034 44.1419L605.048 42.4181ZM603.277 41.96C602.637 41.96 602.029 42.1005 601.484 42.4118L602.477 44.1482C602.679 44.0328 602.935 43.96 603.277 43.96V41.96ZM601.474 42.4181C600.95 42.7259 600.538 43.1576 600.242 43.6904L601.991 44.6616C602.121 44.4264 602.286 44.2608 602.488 44.1419L601.474 42.4181ZM600.238 43.6989C599.941 44.2459 599.813 44.8594 599.813 45.504H601.813C601.813 45.1246 601.887 44.8527 601.995 44.6531L600.238 43.6989ZM599.813 45.504V45.824H601.813V45.504H599.813ZM599.813 45.824C599.813 46.4947 599.968 47.1285 600.305 47.6951L602.024 46.6729C601.892 46.4502 601.813 46.1773 601.813 45.824H599.813ZM600.305 47.6951C600.642 48.261 601.118 48.6949 601.709 48.9904L602.604 47.2016C602.341 47.0704 602.157 46.8963 602.024 46.6729L600.305 47.6951ZM601.709 48.9904C602.296 49.2837 602.944 49.416 603.629 49.416V47.416C603.204 47.416 602.871 47.335 602.604 47.2016L601.709 48.9904ZM603.629 49.416C604.212 49.416 604.77 49.325 605.287 49.124L604.562 47.26C604.311 47.3576 604.005 47.416 603.629 47.416V49.416ZM605.287 49.124C605.82 48.9168 606.285 48.5932 606.68 48.1703L605.218 46.8057C605.015 47.0228 604.797 47.1685 604.562 47.26L605.287 49.124ZM605.194 48.1444L606.266 49.3764L607.775 48.0636L606.703 46.8316L605.194 48.1444ZM606.261 48.0692C605.987 48.3896 605.633 48.6475 605.179 48.8374L605.95 50.6826C606.67 50.3818 607.287 49.9464 607.78 49.3708L606.261 48.0692ZM605.187 48.8339C604.753 49.011 604.223 49.112 603.581 49.112V51.112C604.431 51.112 605.225 50.9783 605.942 50.6861L605.187 48.8339Z" fill="black"/>
<path d="M642.824 50V40.56H639.112V38.8H648.616V40.56H644.904V50H642.824ZM652.486 50.112C651.536 50.112 650.704 49.9253 649.99 49.552C649.286 49.168 648.736 48.6453 648.342 47.984C647.958 47.3227 647.766 46.5707 647.766 45.728C647.766 44.8747 647.952 44.1227 648.326 43.472C648.71 42.8107 649.232 42.2933 649.894 41.92C650.566 41.5467 651.328 41.36 652.182 41.36C653.014 41.36 653.755 41.5413 654.406 41.904C655.056 42.2667 655.568 42.7787 655.942 43.44C656.315 44.1013 656.502 44.88 656.502 45.776C656.502 45.8613 656.496 45.9573 656.486 46.064C656.486 46.1707 656.48 46.272 656.47 46.368H649.35V45.04H655.414L654.63 45.456C654.64 44.9653 654.539 44.5333 654.326 44.16C654.112 43.7867 653.819 43.4933 653.446 43.28C653.083 43.0667 652.662 42.96 652.182 42.96C651.691 42.96 651.259 43.0667 650.886 43.28C650.523 43.4933 650.235 43.792 650.022 44.176C649.819 44.5493 649.718 44.992 649.718 45.504V45.824C649.718 46.336 649.835 46.7893 650.07 47.184C650.304 47.5787 650.635 47.8827 651.062 48.096C651.488 48.3093 651.979 48.416 652.534 48.416C653.014 48.416 653.446 48.3413 653.83 48.192C654.214 48.0427 654.555 47.808 654.854 47.488L655.926 48.72C655.542 49.168 655.056 49.5147 654.47 49.76C653.894 49.9947 653.232 50.112 652.486 50.112ZM656.38 50L660.14 45.104L660.108 46.176L656.524 41.456H658.748L661.26 44.816H660.412L662.94 41.456H665.1L661.484 46.176L661.5 45.104L665.244 50H662.988L660.348 46.432L661.18 46.544L658.588 50H656.38ZM669.296 50.112C668.358 50.112 667.632 49.872 667.12 49.392C666.608 48.9013 666.352 48.1813 666.352 47.232V39.568H668.352V47.184C668.352 47.5893 668.454 47.904 668.656 48.128C668.87 48.352 669.163 48.464 669.536 48.464C669.984 48.464 670.358 48.3467 670.656 48.112L671.216 49.536C670.982 49.728 670.694 49.872 670.352 49.968C670.011 50.064 669.659 50.112 669.296 50.112ZM664.944 43.12V41.52H670.64V43.12H664.944ZM676.957 50.112C676.232 50.112 675.587 49.952 675.021 49.632C674.456 49.312 674.008 48.832 673.677 48.192C673.357 47.5413 673.197 46.72 673.197 45.728C673.197 44.7253 673.363 43.904 673.693 43.264C674.035 42.624 674.488 42.1493 675.053 41.84C675.629 41.52 676.264 41.36 676.957 41.36C677.8 41.36 678.541 41.5413 679.181 41.904C679.832 42.2667 680.344 42.7733 680.717 43.424C681.101 44.0747 681.293 44.8427 681.293 45.728C681.293 46.6133 681.101 47.3813 680.717 48.032C680.344 48.6827 679.832 49.1947 679.181 49.568C678.541 49.9307 677.8 50.112 676.957 50.112ZM672.221 50V38.128H674.221V43.44L674.061 45.712L674.125 47.984V50H672.221ZM676.733 48.4C677.213 48.4 677.64 48.2933 678.013 48.08C678.397 47.8667 678.701 47.5573 678.925 47.152C679.149 46.7467 679.261 46.272 679.261 45.728C679.261 45.1733 679.149 44.6987 678.925 44.304C678.701 43.8987 678.397 43.5893 678.013 43.376C677.64 43.1627 677.213 43.056 676.733 43.056C676.253 43.056 675.821 43.1627 675.437 43.376C675.053 43.5893 674.749 43.8987 674.525 44.304C674.301 44.6987 674.189 45.1733 674.189 45.728C674.189 46.272 674.301 46.7467 674.525 47.152C674.749 47.5573 675.053 47.8667 675.437 48.08C675.821 48.2933 676.253 48.4 676.733 48.4ZM686.39 50.112C685.516 50.112 684.737 49.9253 684.054 49.552C683.372 49.168 682.833 48.6453 682.438 47.984C682.044 47.3227 681.846 46.5707 681.846 45.728C681.846 44.8747 682.044 44.1227 682.438 43.472C682.833 42.8107 683.372 42.2933 684.054 41.92C684.737 41.5467 685.516 41.36 686.39 41.36C687.276 41.36 688.06 41.5467 688.742 41.92C689.436 42.2933 689.974 42.8053 690.358 43.456C690.753 44.1067 690.95 44.864 690.95 45.728C690.95 46.5707 690.753 47.3227 690.358 47.984C689.974 48.6453 689.436 49.168 688.742 49.552C688.06 49.9253 687.276 50.112 686.39 50.112ZM686.39 48.4C686.881 48.4 687.318 48.2933 687.702 48.08C688.086 47.8667 688.385 47.5573 688.598 47.152C688.822 46.7467 688.934 46.272 688.934 45.728C688.934 45.1733 688.822 44.6987 688.598 44.304C688.385 43.8987 688.086 43.5893 687.702 43.376C687.318 43.1627 686.886 43.056 686.406 43.056C685.916 43.056 685.478 43.1627 685.094 43.376C684.721 43.5893 684.422 43.8987 684.198 44.304C683.974 44.6987 683.862 45.1733 683.862 45.728C683.862 46.272 683.974 46.7467 684.198 47.152C684.422 47.5573 684.721 47.8667 685.094 48.08C685.478 48.2933 685.91 48.4 686.39 48.4ZM696.063 50.112C695.188 50.112 694.409 49.9253 693.727 49.552C693.044 49.168 692.505 48.6453 692.111 47.984C691.716 47.3227 691.519 46.5707 691.519 45.728C691.519 44.8747 691.716 44.1227 692.111 43.472C692.505 42.8107 693.044 42.2933 693.727 41.92C694.409 41.5467 695.188 41.36 696.063 41.36C696.948 41.36 697.732 41.5467 698.415 41.92C699.108 42.2933 699.647 42.8053 700.031 43.456C700.425 44.1067 700.623 44.864 700.623 45.728C700.623 46.5707 700.425 47.3227 700.031 47.984C699.647 48.6453 699.108 49.168 698.415 49.552C697.732 49.9253 696.948 50.112 696.063 50.112ZM696.063 48.4C696.553 48.4 696.991 48.2933 697.375 48.08C697.759 47.8667 698.057 47.5573 698.271 47.152C698.495 46.7467 698.607 46.272 698.607 45.728C698.607 45.1733 698.495 44.6987 698.271 44.304C698.057 43.8987 697.759 43.5893 697.375 43.376C696.991 43.1627 696.559 43.056 696.079 43.056C695.588 43.056 695.151 43.1627 694.767 43.376C694.393 43.5893 694.095 43.8987 693.871 44.304C693.647 44.6987 693.535 45.1733 693.535 45.728C693.535 46.272 693.647 46.7467 693.871 47.152C694.095 47.5573 694.393 47.8667 694.767 48.08C695.151 48.2933 695.583 48.4 696.063 48.4ZM703.527 48.096L703.575 45.584L708.039 41.456H710.439L706.647 45.264L705.591 46.144L703.527 48.096ZM701.895 50V38.128H703.895V50H701.895ZM708.343 50L705.223 46.144L706.487 44.544L710.775 50H708.343Z" fill="#757575"/>
<path d="M746.024 50.16C745.149 50.16 744.312 50.0373 743.512 49.792C742.712 49.536 742.077 49.2107 741.608 48.816L742.328 47.2C742.776 47.552 743.33 47.8453 743.992 48.08C744.653 48.3147 745.33 48.432 746.024 48.432C746.61 48.432 747.085 48.368 747.448 48.24C747.81 48.112 748.077 47.9413 748.248 47.728C748.418 47.504 748.504 47.2533 748.504 46.976C748.504 46.6347 748.381 46.3627 748.136 46.16C747.89 45.9467 747.57 45.7813 747.176 45.664C746.792 45.536 746.36 45.4187 745.88 45.312C745.41 45.2053 744.936 45.0827 744.456 44.944C743.986 44.7947 743.554 44.608 743.16 44.384C742.776 44.1493 742.461 43.84 742.216 43.456C741.97 43.072 741.848 42.5813 741.848 41.984C741.848 41.376 742.008 40.8213 742.328 40.32C742.658 39.808 743.154 39.4027 743.816 39.104C744.488 38.7947 745.336 38.64 746.36 38.64C747.032 38.64 747.698 38.7253 748.36 38.896C749.021 39.0667 749.597 39.312 750.088 39.632L749.432 41.248C748.93 40.9493 748.413 40.7307 747.88 40.592C747.346 40.4427 746.834 40.368 746.344 40.368C745.768 40.368 745.298 40.4373 744.936 40.576C744.584 40.7147 744.322 40.896 744.152 41.12C743.992 41.344 743.912 41.6 743.912 41.888C743.912 42.2293 744.029 42.5067 744.264 42.72C744.509 42.9227 744.824 43.0827 745.208 43.2C745.602 43.3173 746.04 43.4347 746.52 43.552C747 43.6587 747.474 43.7813 747.944 43.92C748.424 44.0587 748.856 44.24 749.24 44.464C749.634 44.688 749.949 44.992 750.184 45.376C750.429 45.76 750.552 46.2453 750.552 46.832C750.552 47.4293 750.386 47.984 750.056 48.496C749.736 48.9973 749.24 49.4027 748.568 49.712C747.896 50.0107 747.048 50.16 746.024 50.16ZM754.998 50.112C754.059 50.112 753.334 49.872 752.822 49.392C752.31 48.9013 752.054 48.1813 752.054 47.232V39.568H754.054V47.184C754.054 47.5893 754.155 47.904 754.358 48.128C754.571 48.352 754.865 48.464 755.238 48.464C755.686 48.464 756.059 48.3467 756.358 48.112L756.918 49.536C756.683 49.728 756.395 49.872 756.054 49.968C755.713 50.064 755.361 50.112 754.998 50.112ZM750.646 43.12V41.52H756.342V43.12H750.646ZM763.187 50V48.272L763.075 47.904V44.88C763.075 44.2933 762.899 43.84 762.547 43.52C762.195 43.1893 761.662 43.024 760.947 43.024C760.467 43.024 759.993 43.0987 759.523 43.248C759.065 43.3973 758.675 43.6053 758.355 43.872L757.571 42.416C758.03 42.064 758.574 41.8027 759.203 41.632C759.843 41.4507 760.505 41.36 761.187 41.36C762.425 41.36 763.379 41.6587 764.051 42.256C764.734 42.8427 765.075 43.7547 765.075 44.992V50H763.187ZM760.499 50.112C759.859 50.112 759.299 50.0053 758.819 49.792C758.339 49.568 757.966 49.264 757.699 48.88C757.443 48.4853 757.315 48.0427 757.315 47.552C757.315 47.072 757.427 46.64 757.651 46.256C757.886 45.872 758.265 45.568 758.787 45.344C759.31 45.12 760.003 45.008 760.867 45.008H763.347V46.336H761.011C760.329 46.336 759.87 46.448 759.635 46.672C759.401 46.8853 759.283 47.152 759.283 47.472C759.283 47.8347 759.427 48.1227 759.715 48.336C760.003 48.5493 760.403 48.656 760.915 48.656C761.406 48.656 761.843 48.544 762.227 48.32C762.622 48.096 762.905 47.7653 763.075 47.328L763.411 48.528C763.219 49.0293 762.873 49.4187 762.371 49.696C761.881 49.9733 761.257 50.112 760.499 50.112ZM770.218 50.112C769.279 50.112 768.554 49.872 768.042 49.392C767.53 48.9013 767.274 48.1813 767.274 47.232V39.568H769.274V47.184C769.274 47.5893 769.375 47.904 769.578 48.128C769.791 48.352 770.085 48.464 770.458 48.464C770.906 48.464 771.279 48.3467 771.578 48.112L772.138 49.536C771.903 49.728 771.615 49.872 771.274 49.968C770.933 50.064 770.581 50.112 770.218 50.112ZM765.866 43.12V41.52H771.562V43.12H765.866ZM773.143 50V41.456H775.143V50H773.143ZM774.151 40.048C773.778 40.048 773.469 39.9307 773.223 39.696C772.989 39.4613 772.871 39.1787 772.871 38.848C772.871 38.5067 772.989 38.224 773.223 38C773.469 37.7653 773.778 37.648 774.151 37.648C774.525 37.648 774.829 37.76 775.063 37.984C775.309 38.1973 775.431 38.4693 775.431 38.8C775.431 39.152 775.314 39.4507 775.079 39.696C774.845 39.9307 774.535 40.048 774.151 40.048ZM779.768 50.112C779.054 50.112 778.366 50.0213 777.704 49.84C777.054 49.648 776.536 49.4187 776.152 49.152L776.92 47.632C777.304 47.8773 777.763 48.08 778.296 48.24C778.83 48.4 779.363 48.48 779.896 48.48C780.526 48.48 780.979 48.3947 781.256 48.224C781.544 48.0533 781.688 47.824 781.688 47.536C781.688 47.3013 781.592 47.1253 781.4 47.008C781.208 46.88 780.958 46.784 780.648 46.72C780.339 46.656 779.992 46.5973 779.608 46.544C779.235 46.4907 778.856 46.4213 778.472 46.336C778.099 46.24 777.758 46.1067 777.448 45.936C777.139 45.7547 776.888 45.5147 776.696 45.216C776.504 44.9173 776.408 44.5227 776.408 44.032C776.408 43.488 776.563 43.0187 776.872 42.624C777.182 42.2187 777.614 41.9093 778.168 41.696C778.734 41.472 779.4 41.36 780.168 41.36C780.744 41.36 781.326 41.424 781.912 41.552C782.499 41.68 782.984 41.8613 783.368 42.096L782.6 43.616C782.195 43.3707 781.784 43.2053 781.368 43.12C780.963 43.024 780.558 42.976 780.152 42.976C779.544 42.976 779.091 43.0667 778.792 43.248C778.504 43.4293 778.36 43.6587 778.36 43.936C778.36 44.192 778.456 44.384 778.648 44.512C778.84 44.64 779.091 44.7413 779.4 44.816C779.71 44.8907 780.051 44.9547 780.424 45.008C780.808 45.0507 781.187 45.12 781.56 45.216C781.934 45.312 782.275 45.4453 782.584 45.616C782.904 45.776 783.16 46.0053 783.352 46.304C783.544 46.6027 783.64 46.992 783.64 47.472C783.64 48.0053 783.48 48.4693 783.16 48.864C782.851 49.2587 782.408 49.568 781.832 49.792C781.256 50.0053 780.568 50.112 779.768 50.112ZM787.939 50.112C787 50.112 786.275 49.872 785.763 49.392C785.251 48.9013 784.995 48.1813 784.995 47.232V39.568H786.995V47.184C786.995 47.5893 787.096 47.904 787.299 48.128C787.512 48.352 787.805 48.464 788.179 48.464C788.627 48.464 789 48.3467 789.299 48.112L789.859 49.536C789.624 49.728 789.336 49.872 788.995 49.968C788.653 50.064 788.301 50.112 787.939 50.112ZM783.587 43.12V41.52H789.283V43.12H783.587ZM790.864 50V41.456H792.864V50H790.864ZM791.872 40.048C791.499 40.048 791.189 39.9307 790.944 39.696C790.709 39.4613 790.592 39.1787 790.592 38.848C790.592 38.5067 790.709 38.224 790.944 38C791.189 37.7653 791.499 37.648 791.872 37.648C792.245 37.648 792.549 37.76 792.784 37.984C793.029 38.1973 793.152 38.4693 793.152 38.8C793.152 39.152 793.035 39.4507 792.8 39.696C792.565 39.9307 792.256 40.048 791.872 40.048ZM798.769 50.112C797.873 50.112 797.073 49.9253 796.369 49.552C795.676 49.168 795.132 48.6453 794.737 47.984C794.342 47.3227 794.145 46.5707 794.145 45.728C794.145 44.8747 794.342 44.1227 794.737 43.472C795.132 42.8107 795.676 42.2933 796.369 41.92C797.073 41.5467 797.873 41.36 798.769 41.36C799.601 41.36 800.332 41.5307 800.961 41.872C801.601 42.2027 802.086 42.6933 802.417 43.344L800.881 44.24C800.625 43.8347 800.31 43.536 799.937 43.344C799.574 43.152 799.18 43.056 798.753 43.056C798.262 43.056 797.82 43.1627 797.425 43.376C797.03 43.5893 796.721 43.8987 796.497 44.304C796.273 44.6987 796.161 45.1733 796.161 45.728C796.161 46.2827 796.273 46.7627 796.497 47.168C796.721 47.5627 797.03 47.8667 797.425 48.08C797.82 48.2933 798.262 48.4 798.753 48.4C799.18 48.4 799.574 48.304 799.937 48.112C800.31 47.92 800.625 47.6213 800.881 47.216L802.417 48.112C802.086 48.752 801.601 49.248 800.961 49.6C800.332 49.9413 799.601 50.112 798.769 50.112ZM806.146 50.112C805.431 50.112 804.743 50.0213 804.082 49.84C803.431 49.648 802.914 49.4187 802.53 49.152L803.298 47.632C803.682 47.8773 804.141 48.08 804.674 48.24C805.207 48.4 805.741 48.48 806.274 48.48C806.903 48.48 807.357 48.3947 807.634 48.224C807.922 48.0533 808.066 47.824 808.066 47.536C808.066 47.3013 807.97 47.1253 807.778 47.008C807.586 46.88 807.335 46.784 807.026 46.72C806.717 46.656 806.37 46.5973 805.986 46.544C805.613 46.4907 805.234 46.4213 804.85 46.336C804.477 46.24 804.135 46.1067 803.826 45.936C803.517 45.7547 803.266 45.5147 803.074 45.216C802.882 44.9173 802.786 44.5227 802.786 44.032C802.786 43.488 802.941 43.0187 803.25 42.624C803.559 42.2187 803.991 41.9093 804.546 41.696C805.111 41.472 805.778 41.36 806.546 41.36C807.122 41.36 807.703 41.424 808.29 41.552C808.877 41.68 809.362 41.8613 809.746 42.096L808.978 43.616C808.573 43.3707 808.162 43.2053 807.746 43.12C807.341 43.024 806.935 42.976 806.53 42.976C805.922 42.976 805.469 43.0667 805.17 43.248C804.882 43.4293 804.738 43.6587 804.738 43.936C804.738 44.192 804.834 44.384 805.026 44.512C805.218 44.64 805.469 44.7413 805.778 44.816C806.087 44.8907 806.429 44.9547 806.802 45.008C807.186 45.0507 807.565 45.12 807.938 45.216C808.311 45.312 808.653 45.4453 808.962 45.616C809.282 45.776 809.538 46.0053 809.73 46.304C809.922 46.6027 810.018 46.992 810.018 47.472C810.018 48.0053 809.858 48.4693 809.538 48.864C809.229 49.2587 808.786 49.568 808.21 49.792C807.634 50.0053 806.946 50.112 806.146 50.112Z" fill="#757575"/>
<path d="M847.784 50.16C846.909 50.16 846.104 50.0213 845.368 49.744C844.642 49.456 844.008 49.056 843.464 48.544C842.92 48.0213 842.498 47.408 842.2 46.704C841.901 46 841.752 45.232 841.752 44.4C841.752 43.568 841.901 42.8 842.2 42.096C842.498 41.392 842.92 40.784 843.464 40.272C844.018 39.7493 844.664 39.3493 845.4 39.072C846.136 38.784 846.941 38.64 847.816 38.64C848.765 38.64 849.618 38.7947 850.376 39.104C851.144 39.4133 851.789 39.8667 852.312 40.464L851 41.744C850.562 41.3067 850.088 40.9867 849.576 40.784C849.074 40.5707 848.52 40.464 847.912 40.464C847.325 40.464 846.781 40.56 846.28 40.752C845.778 40.944 845.346 41.216 844.984 41.568C844.621 41.92 844.338 42.336 844.136 42.816C843.944 43.296 843.848 43.824 843.848 44.4C843.848 44.9653 843.944 45.488 844.136 45.968C844.338 46.448 844.621 46.8693 844.984 47.232C845.346 47.584 845.773 47.856 846.264 48.048C846.754 48.24 847.298 48.336 847.896 48.336C848.45 48.336 848.984 48.2507 849.496 48.08C850.018 47.8987 850.514 47.6 850.984 47.184L852.168 48.736C851.581 49.2053 850.898 49.5627 850.12 49.808C849.352 50.0427 848.573 50.16 847.784 50.16ZM850.2 48.464V44.272H852.168V48.736L850.2 48.464ZM859.343 50V48.272L859.231 47.904V44.88C859.231 44.2933 859.055 43.84 858.703 43.52C858.351 43.1893 857.818 43.024 857.103 43.024C856.623 43.024 856.148 43.0987 855.679 43.248C855.22 43.3973 854.831 43.6053 854.511 43.872L853.727 42.416C854.186 42.064 854.73 41.8027 855.359 41.632C855.999 41.4507 856.66 41.36 857.343 41.36C858.58 41.36 859.535 41.6587 860.207 42.256C860.89 42.8427 861.231 43.7547 861.231 44.992V50H859.343ZM856.655 50.112C856.015 50.112 855.455 50.0053 854.975 49.792C854.495 49.568 854.122 49.264 853.855 48.88C853.599 48.4853 853.471 48.0427 853.471 47.552C853.471 47.072 853.583 46.64 853.807 46.256C854.042 45.872 854.42 45.568 854.943 45.344C855.466 45.12 856.159 45.008 857.023 45.008H859.503V46.336H857.167C856.484 46.336 856.026 46.448 855.791 46.672C855.556 46.8853 855.439 47.152 855.439 47.472C855.439 47.8347 855.583 48.1227 855.871 48.336C856.159 48.5493 856.559 48.656 857.071 48.656C857.562 48.656 857.999 48.544 858.383 48.32C858.778 48.096 859.06 47.7653 859.231 47.328L859.567 48.528C859.375 49.0293 859.028 49.4187 858.527 49.696C858.036 49.9733 857.412 50.112 856.655 50.112ZM873.942 41.36C874.624 41.36 875.227 41.4933 875.75 41.76C876.283 42.0267 876.699 42.4373 876.998 42.992C877.296 43.536 877.446 44.24 877.446 45.104V50H875.446V45.36C875.446 44.6027 875.28 44.0373 874.95 43.664C874.619 43.2907 874.144 43.104 873.526 43.104C873.088 43.104 872.699 43.2 872.358 43.392C872.027 43.584 871.766 43.8667 871.574 44.24C871.392 44.6133 871.302 45.088 871.302 45.664V50H869.302V45.36C869.302 44.6027 869.136 44.0373 868.806 43.664C868.475 43.2907 868 43.104 867.382 43.104C866.944 43.104 866.555 43.2 866.214 43.392C865.883 43.584 865.622 43.8667 865.43 44.24C865.248 44.6133 865.158 45.088 865.158 45.664V50H863.158V41.456H865.062V43.728L864.726 43.056C865.014 42.5013 865.43 42.08 865.974 41.792C866.528 41.504 867.158 41.36 867.862 41.36C868.662 41.36 869.355 41.5573 869.942 41.952C870.539 42.3467 870.934 42.944 871.126 43.744L870.342 43.472C870.619 42.832 871.078 42.32 871.718 41.936C872.358 41.552 873.099 41.36 873.942 41.36ZM883.393 50.112C882.444 50.112 881.612 49.9253 880.897 49.552C880.193 49.168 879.644 48.6453 879.249 47.984C878.865 47.3227 878.673 46.5707 878.673 45.728C878.673 44.8747 878.86 44.1227 879.233 43.472C879.617 42.8107 880.14 42.2933 880.801 41.92C881.473 41.5467 882.236 41.36 883.089 41.36C883.921 41.36 884.662 41.5413 885.313 41.904C885.964 42.2667 886.476 42.7787 886.849 43.44C887.222 44.1013 887.409 44.88 887.409 45.776C887.409 45.8613 887.404 45.9573 887.393 46.064C887.393 46.1707 887.388 46.272 887.377 46.368H880.257V45.04H886.321L885.537 45.456C885.548 44.9653 885.446 44.5333 885.233 44.16C885.02 43.7867 884.726 43.4933 884.353 43.28C883.99 43.0667 883.569 42.96 883.089 42.96C882.598 42.96 882.166 43.0667 881.793 43.28C881.43 43.4933 881.142 43.792 880.929 44.176C880.726 44.5493 880.625 44.992 880.625 45.504V45.824C880.625 46.336 880.742 46.7893 880.977 47.184C881.212 47.5787 881.542 47.8827 881.969 48.096C882.396 48.3093 882.886 48.416 883.441 48.416C883.921 48.416 884.353 48.3413 884.737 48.192C885.121 48.0427 885.462 47.808 885.761 47.488L886.833 48.72C886.449 49.168 885.964 49.5147 885.377 49.76C884.801 49.9947 884.14 50.112 883.393 50.112ZM891.33 50.112C890.616 50.112 889.928 50.0213 889.266 49.84C888.616 49.648 888.098 49.4187 887.714 49.152L888.482 47.632C888.866 47.8773 889.325 48.08 889.858 48.24C890.392 48.4 890.925 48.48 891.458 48.48C892.088 48.48 892.541 48.3947 892.818 48.224C893.106 48.0533 893.25 47.824 893.25 47.536C893.25 47.3013 893.154 47.1253 892.962 47.008C892.77 46.88 892.52 46.784 892.21 46.72C891.901 46.656 891.554 46.5973 891.17 46.544C890.797 46.4907 890.418 46.4213 890.034 46.336C889.661 46.24 889.32 46.1067 889.01 45.936C888.701 45.7547 888.45 45.5147 888.258 45.216C888.066 44.9173 887.97 44.5227 887.97 44.032C887.97 43.488 888.125 43.0187 888.434 42.624C888.744 42.2187 889.176 41.9093 889.73 41.696C890.296 41.472 890.962 41.36 891.73 41.36C892.306 41.36 892.888 41.424 893.474 41.552C894.061 41.68 894.546 41.8613 894.93 42.096L894.162 43.616C893.757 43.3707 893.346 43.2053 892.93 43.12C892.525 43.024 892.12 42.976 891.714 42.976C891.106 42.976 890.653 43.0667 890.354 43.248C890.066 43.4293 889.922 43.6587 889.922 43.936C889.922 44.192 890.018 44.384 890.21 44.512C890.402 44.64 890.653 44.7413 890.962 44.816C891.272 44.8907 891.613 44.9547 891.986 45.008C892.37 45.0507 892.749 45.12 893.122 45.216C893.496 45.312 893.837 45.4453 894.146 45.616C894.466 45.776 894.722 46.0053 894.914 46.304C895.106 46.6027 895.202 46.992 895.202 47.472C895.202 48.0053 895.042 48.4693 894.722 48.864C894.413 49.2587 893.97 49.568 893.394 49.792C892.818 50.0053 892.13 50.112 891.33 50.112Z" fill="#757575"/>
<path d="M899.812 43.6089L903.274 47.0713L906.737 43.6089" stroke="#757575" stroke-width="1.6"/>
<rect x="1465.05" y="24" width="41" height="40" rx="20" fill="#C3DCE3"/>
<path d="M1479.28 50L1484.27 38.8H1486.83L1491.84 50H1489.12L1485.02 40.112H1486.05L1481.93 50H1479.28ZM1481.77 47.6L1482.46 45.632H1488.22L1488.93 47.6H1481.77Z" fill="#2B788B"/>
<path d="M1515.97 50L1521.01 38.8H1523.06L1528.11 50H1525.94L1521.6 39.904H1522.43L1518.11 50H1515.97ZM1518.29 47.408L1518.85 45.776H1524.9L1525.46 47.408H1518.29ZM1528.7 50V38.128H1530.7V50H1528.7ZM1536.7 50.112C1535.76 50.112 1534.92 49.9253 1534.21 49.552C1533.5 49.168 1532.96 48.6453 1532.56 47.984C1532.18 47.3227 1531.98 46.5707 1531.98 45.728C1531.98 44.8747 1532.17 44.1227 1532.54 43.472C1532.93 42.8107 1533.45 42.2933 1534.11 41.92C1534.78 41.5467 1535.55 41.36 1536.4 41.36C1537.23 41.36 1537.97 41.5413 1538.62 41.904C1539.28 42.2667 1539.79 42.7787 1540.16 43.44C1540.53 44.1013 1540.72 44.88 1540.72 45.776C1540.72 45.8613 1540.72 45.9573 1540.7 46.064C1540.7 46.1707 1540.7 46.272 1540.69 46.368H1533.57V45.04H1539.63L1538.85 45.456C1538.86 44.9653 1538.76 44.5333 1538.54 44.16C1538.33 43.7867 1538.04 43.4933 1537.66 43.28C1537.3 43.0667 1536.88 42.96 1536.4 42.96C1535.91 42.96 1535.48 43.0667 1535.1 43.28C1534.74 43.4933 1534.45 43.792 1534.24 44.176C1534.04 44.5493 1533.94 44.992 1533.94 45.504V45.824C1533.94 46.336 1534.05 46.7893 1534.29 47.184C1534.52 47.5787 1534.85 47.8827 1535.28 48.096C1535.71 48.3093 1536.2 48.416 1536.75 48.416C1537.23 48.416 1537.66 48.3413 1538.05 48.192C1538.43 48.0427 1538.77 47.808 1539.07 47.488L1540.14 48.72C1539.76 49.168 1539.28 49.5147 1538.69 49.76C1538.11 49.9947 1537.45 50.112 1536.7 50.112ZM1540.6 50L1544.36 45.104L1544.33 46.176L1540.74 41.456H1542.97L1545.48 44.816H1544.63L1547.16 41.456H1549.32L1545.7 46.176L1545.72 45.104L1549.46 50H1547.21L1544.57 46.432L1545.4 46.544L1542.81 50H1540.6Z" fill="#757575"/>
</g>
<defs>
<filter id="filter0_i_0_40" x="0.0476074" y="0" width="1920" height="88" filterUnits="userSpaceOnUse" color-interpolation-filters="sRGB">
<feFlood flood-opacity="0" result="BackgroundImageFix"/>
<feBlend mode="normal" in="SourceGraphic" in2="BackgroundImageFix" result="shape"/>
<feColorMatrix in="SourceAlpha" type="matrix" values="0 0 0 0 0 0 0 0 0 0 0 0 0 0 0 0 0 0 127 0" result="hardAlpha"/>
<feOffset dy="-1"/>
<feComposite in2="hardAlpha" operator="arithmetic" k2="-1" k3="1"/>
<feColorMatrix type="matrix" values="0 0 0 0 0.878431 0 0 0 0 0.878431 0 0 0 0 0.878431 0 0 0 1 0"/>
<feBlend mode="normal" in2="shape" result="effect1_innerShadow_0_40"/>
</filter>
</defs>
</svg>
