<svg width="1921" height="104" viewBox="0 0 1921 104" fill="none" xmlns="http://www.w3.org/2000/svg">
<rect width="1920" height="104" transform="translate(0.0476074)" fill="#F6F5F4"/>
<path d="M109.752 62.036C108.968 62.036 108.252 61.848 107.604 61.472C106.964 61.096 106.456 60.584 106.08 59.936C105.712 59.288 105.528 58.576 105.528 57.8C105.528 57.024 105.712 56.312 106.08 55.664C106.456 55.016 106.968 54.504 107.616 54.128C108.264 53.752 108.984 53.564 109.776 53.564C110.568 53.564 111.284 53.748 111.924 54.116C112.572 54.484 113.08 54.992 113.448 55.64C113.816 56.28 114 56.992 114 57.776C114 58.56 113.812 59.28 113.436 59.936C113.06 60.584 112.548 61.096 111.9 61.472C111.252 61.848 110.536 62.036 109.752 62.036ZM109.752 61.376C110.416 61.376 111.016 61.216 111.552 60.896C112.096 60.576 112.524 60.144 112.836 59.6C113.148 59.048 113.304 58.44 113.304 57.776C113.304 57.112 113.152 56.512 112.848 55.976C112.544 55.432 112.124 55.004 111.588 54.692C111.052 54.38 110.448 54.224 109.776 54.224C109.104 54.224 108.496 54.384 107.952 54.704C107.408 55.016 106.98 55.444 106.668 55.988C106.364 56.532 106.212 57.136 106.212 57.8C106.212 58.464 106.364 59.068 106.668 59.612C106.98 60.156 107.404 60.588 107.94 60.908C108.484 61.22 109.088 61.376 109.752 61.376ZM109.884 60.248C109.396 60.248 108.96 60.144 108.576 59.936C108.192 59.728 107.892 59.44 107.676 59.072C107.46 58.696 107.352 58.272 107.352 57.8C107.352 57.328 107.46 56.908 107.676 56.54C107.892 56.164 108.192 55.872 108.576 55.664C108.96 55.456 109.396 55.352 109.884 55.352C110.332 55.352 110.728 55.448 111.072 55.64C111.424 55.824 111.696 56.076 111.888 56.396L111.012 56.972C110.764 56.572 110.384 56.372 109.872 56.372C109.48 56.372 109.152 56.504 108.888 56.768C108.632 57.024 108.504 57.368 108.504 57.8C108.504 58.232 108.632 58.58 108.888 58.844C109.152 59.1 109.48 59.228 109.872 59.228C110.384 59.228 110.764 59.028 111.012 58.628L111.888 59.18C111.696 59.516 111.424 59.78 111.072 59.972C110.728 60.156 110.332 60.248 109.884 60.248ZM121.022 60.68V62H114.83V60.956L118.166 57.788C118.542 57.428 118.794 57.116 118.922 56.852C119.058 56.58 119.126 56.312 119.126 56.048C119.126 55.656 118.994 55.356 118.73 55.148C118.466 54.94 118.078 54.836 117.566 54.836C116.71 54.836 116.054 55.128 115.598 55.712L114.506 54.872C114.834 54.432 115.274 54.092 115.826 53.852C116.386 53.604 117.01 53.48 117.698 53.48C118.61 53.48 119.338 53.696 119.882 54.128C120.426 54.56 120.698 55.148 120.698 55.892C120.698 56.348 120.602 56.776 120.41 57.176C120.218 57.576 119.85 58.032 119.306 58.544L117.062 60.68H121.022ZM125.391 62.12C124.719 62.12 124.119 61.952 123.591 61.616C123.063 61.272 122.647 60.776 122.343 60.128C122.039 59.472 121.887 58.696 121.887 57.8C121.887 56.904 122.039 56.132 122.343 55.484C122.647 54.828 123.063 54.332 123.591 53.996C124.119 53.652 124.719 53.48 125.391 53.48C126.063 53.48 126.663 53.652 127.191 53.996C127.727 54.332 128.147 54.828 128.451 55.484C128.755 56.132 128.907 56.904 128.907 57.8C128.907 58.696 128.755 59.472 128.451 60.128C128.147 60.776 127.727 61.272 127.191 61.616C126.663 61.952 126.063 62.12 125.391 62.12ZM125.391 60.764C125.991 60.764 126.463 60.516 126.807 60.02C127.159 59.524 127.335 58.784 127.335 57.8C127.335 56.816 127.159 56.076 126.807 55.58C126.463 55.084 125.991 54.836 125.391 54.836C124.799 54.836 124.327 55.084 123.975 55.58C123.631 56.076 123.459 56.816 123.459 57.8C123.459 58.784 123.631 59.524 123.975 60.02C124.327 60.516 124.799 60.764 125.391 60.764ZM135.987 60.68V62H129.795V60.956L133.131 57.788C133.507 57.428 133.759 57.116 133.887 56.852C134.023 56.58 134.091 56.312 134.091 56.048C134.091 55.656 133.959 55.356 133.695 55.148C133.431 54.94 133.043 54.836 132.531 54.836C131.675 54.836 131.019 55.128 130.563 55.712L129.471 54.872C129.799 54.432 130.239 54.092 130.791 53.852C131.351 53.604 131.975 53.48 132.663 53.48C133.575 53.48 134.303 53.696 134.847 54.128C135.391 54.56 135.663 55.148 135.663 55.892C135.663 56.348 135.567 56.776 135.375 57.176C135.183 57.576 134.815 58.032 134.271 58.544L132.027 60.68H135.987ZM139.791 53.6V62H138.231V54.908H136.455V53.6H139.791ZM151.11 57.704H152.586V61.052C152.154 61.396 151.65 61.66 151.074 61.844C150.498 62.028 149.906 62.12 149.298 62.12C148.442 62.12 147.67 61.936 146.982 61.568C146.294 61.192 145.754 60.676 145.362 60.02C144.97 59.364 144.774 58.624 144.774 57.8C144.774 56.976 144.97 56.236 145.362 55.58C145.754 54.924 146.294 54.412 146.982 54.044C147.678 53.668 148.458 53.48 149.322 53.48C150.026 53.48 150.666 53.596 151.242 53.828C151.818 54.06 152.302 54.4 152.694 54.848L151.71 55.808C151.07 55.168 150.298 54.848 149.394 54.848C148.802 54.848 148.274 54.972 147.81 55.22C147.354 55.468 146.994 55.816 146.73 56.264C146.474 56.712 146.346 57.224 146.346 57.8C146.346 58.36 146.474 58.864 146.73 59.312C146.994 59.76 147.354 60.112 147.81 60.368C148.274 60.624 148.798 60.752 149.382 60.752C150.038 60.752 150.614 60.608 151.11 60.32V57.704ZM154.5 53.096H156V62H154.5V53.096ZM160.848 62.084C160.2 62.084 159.616 61.944 159.096 61.664C158.576 61.384 158.168 60.996 157.872 60.5C157.584 59.996 157.44 59.428 157.44 58.796C157.44 58.164 157.584 57.6 157.872 57.104C158.168 56.608 158.576 56.22 159.096 55.94C159.616 55.66 160.2 55.52 160.848 55.52C161.504 55.52 162.092 55.66 162.612 55.94C163.132 56.22 163.536 56.608 163.824 57.104C164.12 57.6 164.268 58.164 164.268 58.796C164.268 59.428 164.12 59.996 163.824 60.5C163.536 60.996 163.132 61.384 162.612 61.664C162.092 61.944 161.504 62.084 160.848 62.084ZM160.848 60.8C161.4 60.8 161.856 60.616 162.216 60.248C162.576 59.88 162.756 59.396 162.756 58.796C162.756 58.196 162.576 57.712 162.216 57.344C161.856 56.976 161.4 56.792 160.848 56.792C160.296 56.792 159.84 56.976 159.48 57.344C159.128 57.712 158.952 58.196 158.952 58.796C158.952 59.396 159.128 59.88 159.48 60.248C159.84 60.616 160.296 60.8 160.848 60.8ZM169.255 55.52C169.879 55.52 170.435 55.656 170.923 55.928C171.419 56.2 171.807 56.584 172.087 57.08C172.367 57.576 172.507 58.148 172.507 58.796C172.507 59.444 172.367 60.02 172.087 60.524C171.807 61.02 171.419 61.404 170.923 61.676C170.435 61.948 169.879 62.084 169.255 62.084C168.815 62.084 168.411 62.008 168.043 61.856C167.683 61.704 167.379 61.476 167.131 61.172V62H165.703V53.096H167.203V56.372C167.459 56.092 167.759 55.88 168.103 55.736C168.455 55.592 168.839 55.52 169.255 55.52ZM169.087 60.8C169.639 60.8 170.091 60.616 170.443 60.248C170.803 59.88 170.983 59.396 170.983 58.796C170.983 58.196 170.803 57.712 170.443 57.344C170.091 56.976 169.639 56.792 169.087 56.792C168.727 56.792 168.403 56.876 168.115 57.044C167.827 57.204 167.599 57.436 167.431 57.74C167.263 58.044 167.179 58.396 167.179 58.796C167.179 59.196 167.263 59.548 167.431 59.852C167.599 60.156 167.827 60.392 168.115 60.56C168.403 60.72 168.727 60.8 169.087 60.8ZM176.295 55.52C177.239 55.52 177.959 55.748 178.455 56.204C178.959 56.652 179.211 57.332 179.211 58.244V62H177.795V61.22C177.611 61.5 177.347 61.716 177.003 61.868C176.667 62.012 176.259 62.084 175.779 62.084C175.299 62.084 174.879 62.004 174.519 61.844C174.159 61.676 173.879 61.448 173.679 61.16C173.487 60.864 173.391 60.532 173.391 60.164C173.391 59.588 173.603 59.128 174.027 58.784C174.459 58.432 175.135 58.256 176.055 58.256H177.711V58.16C177.711 57.712 177.575 57.368 177.303 57.128C177.039 56.888 176.643 56.768 176.115 56.768C175.755 56.768 175.399 56.824 175.047 56.936C174.703 57.048 174.411 57.204 174.171 57.404L173.583 56.312C173.919 56.056 174.323 55.86 174.795 55.724C175.267 55.588 175.767 55.52 176.295 55.52ZM176.091 60.992C176.467 60.992 176.799 60.908 177.087 60.74C177.383 60.564 177.591 60.316 177.711 59.996V59.252H176.163C175.299 59.252 174.867 59.536 174.867 60.104C174.867 60.376 174.975 60.592 175.191 60.752C175.407 60.912 175.707 60.992 176.091 60.992ZM181.136 53.096H182.636V62H181.136V53.096ZM186.453 54.92H183.669V53.6H190.797V54.92H188.013V62H186.453V54.92ZM193.932 55.52C194.876 55.52 195.596 55.748 196.092 56.204C196.596 56.652 196.848 57.332 196.848 58.244V62H195.432V61.22C195.248 61.5 194.984 61.716 194.64 61.868C194.304 62.012 193.896 62.084 193.416 62.084C192.936 62.084 192.516 62.004 192.156 61.844C191.796 61.676 191.516 61.448 191.316 61.16C191.124 60.864 191.028 60.532 191.028 60.164C191.028 59.588 191.24 59.128 191.664 58.784C192.096 58.432 192.772 58.256 193.692 58.256H195.348V58.16C195.348 57.712 195.212 57.368 194.94 57.128C194.676 56.888 194.28 56.768 193.752 56.768C193.392 56.768 193.036 56.824 192.684 56.936C192.34 57.048 192.048 57.204 191.808 57.404L191.22 56.312C191.556 56.056 191.96 55.86 192.432 55.724C192.904 55.588 193.404 55.52 193.932 55.52ZM193.728 60.992C194.104 60.992 194.436 60.908 194.724 60.74C195.02 60.564 195.228 60.316 195.348 59.996V59.252H193.8C192.936 59.252 192.504 59.536 192.504 60.104C192.504 60.376 192.612 60.592 192.828 60.752C193.044 60.912 193.344 60.992 193.728 60.992ZM198.773 53.096H200.273V62H198.773V53.096ZM204.858 59.252L203.742 60.308V62H202.242V53.096H203.742V58.472L206.85 55.592H208.65L205.974 58.28L208.902 62H207.078L204.858 59.252ZM210.351 62.084C210.079 62.084 209.847 61.992 209.655 61.808C209.463 61.616 209.367 61.376 209.367 61.088C209.367 60.792 209.459 60.552 209.643 60.368C209.835 60.184 210.071 60.092 210.351 60.092C210.631 60.092 210.863 60.184 211.047 60.368C211.239 60.552 211.335 60.792 211.335 61.088C211.335 61.376 211.239 61.616 211.047 61.808C210.855 61.992 210.623 62.084 210.351 62.084ZM219.717 53.6C220.445 53.6 221.077 53.72 221.613 53.96C222.157 54.2 222.573 54.544 222.861 54.992C223.149 55.44 223.293 55.972 223.293 56.588C223.293 57.196 223.149 57.728 222.861 58.184C222.573 58.632 222.157 58.976 221.613 59.216C221.077 59.456 220.445 59.576 219.717 59.576H217.821V62H216.261V53.6H219.717ZM219.645 58.256C220.325 58.256 220.841 58.112 221.193 57.824C221.545 57.536 221.721 57.124 221.721 56.588C221.721 56.052 221.545 55.64 221.193 55.352C220.841 55.064 220.325 54.92 219.645 54.92H217.821V58.256H219.645ZM226.076 56.528C226.508 55.856 227.268 55.52 228.356 55.52V56.948C228.228 56.924 228.112 56.912 228.008 56.912C227.424 56.912 226.968 57.084 226.64 57.428C226.312 57.764 226.148 58.252 226.148 58.892V62H224.648V55.592H226.076V56.528ZM232.45 62.084C231.802 62.084 231.218 61.944 230.698 61.664C230.178 61.384 229.77 60.996 229.474 60.5C229.186 59.996 229.042 59.428 229.042 58.796C229.042 58.164 229.186 57.6 229.474 57.104C229.77 56.608 230.178 56.22 230.698 55.94C231.218 55.66 231.802 55.52 232.45 55.52C233.106 55.52 233.694 55.66 234.214 55.94C234.734 56.22 235.138 56.608 235.426 57.104C235.722 57.6 235.87 58.164 235.87 58.796C235.87 59.428 235.722 59.996 235.426 60.5C235.138 60.996 234.734 61.384 234.214 61.664C233.694 61.944 233.106 62.084 232.45 62.084ZM232.45 60.8C233.002 60.8 233.458 60.616 233.818 60.248C234.178 59.88 234.358 59.396 234.358 58.796C234.358 58.196 234.178 57.712 233.818 57.344C233.458 56.976 233.002 56.792 232.45 56.792C231.898 56.792 231.442 56.976 231.082 57.344C230.73 57.712 230.554 58.196 230.554 58.796C230.554 59.396 230.73 59.88 231.082 60.248C231.442 60.616 231.898 60.8 232.45 60.8ZM236.644 64.412C236.012 64.412 235.532 64.288 235.204 64.04L235.636 62.924C235.86 63.092 236.152 63.176 236.512 63.176C236.792 63.176 237.004 63.088 237.148 62.912C237.3 62.744 237.376 62.492 237.376 62.156V55.592H238.876V62.12C238.876 62.832 238.68 63.392 238.288 63.8C237.896 64.208 237.348 64.412 236.644 64.412ZM238.12 54.536C237.848 54.536 237.62 54.452 237.436 54.284C237.252 54.108 237.16 53.892 237.16 53.636C237.16 53.38 237.252 53.168 237.436 53C237.62 52.824 237.848 52.736 238.12 52.736C238.392 52.736 238.62 52.82 238.804 52.988C238.988 53.148 239.08 53.352 239.08 53.6C239.08 53.864 238.988 54.088 238.804 54.272C238.628 54.448 238.4 54.536 238.12 54.536ZM246.867 58.832C246.867 58.936 246.859 59.084 246.843 59.276H241.815C241.903 59.748 242.131 60.124 242.499 60.404C242.875 60.676 243.339 60.812 243.891 60.812C244.595 60.812 245.175 60.58 245.631 60.116L246.435 61.04C246.147 61.384 245.783 61.644 245.343 61.82C244.903 61.996 244.407 62.084 243.855 62.084C243.151 62.084 242.531 61.944 241.995 61.664C241.459 61.384 241.043 60.996 240.747 60.5C240.459 59.996 240.315 59.428 240.315 58.796C240.315 58.172 240.455 57.612 240.735 57.116C241.023 56.612 241.419 56.22 241.923 55.94C242.427 55.66 242.995 55.52 243.627 55.52C244.251 55.52 244.807 55.66 245.295 55.94C245.791 56.212 246.175 56.6 246.447 57.104C246.727 57.6 246.867 58.176 246.867 58.832ZM243.627 56.72C243.147 56.72 242.739 56.864 242.403 57.152C242.075 57.432 241.875 57.808 241.803 58.28H245.439C245.375 57.816 245.179 57.44 244.851 57.152C244.523 56.864 244.115 56.72 243.627 56.72ZM251.248 62.084C250.584 62.084 249.988 61.944 249.46 61.664C248.932 61.384 248.52 60.996 248.224 60.5C247.928 59.996 247.78 59.428 247.78 58.796C247.78 58.164 247.928 57.6 248.224 57.104C248.52 56.608 248.928 56.22 249.448 55.94C249.976 55.66 250.576 55.52 251.248 55.52C251.88 55.52 252.432 55.648 252.904 55.904C253.384 56.16 253.744 56.528 253.984 57.008L252.832 57.68C252.648 57.384 252.416 57.164 252.136 57.02C251.864 56.868 251.564 56.792 251.236 56.792C250.676 56.792 250.212 56.976 249.844 57.344C249.476 57.704 249.292 58.188 249.292 58.796C249.292 59.404 249.472 59.892 249.832 60.26C250.2 60.62 250.668 60.8 251.236 60.8C251.564 60.8 251.864 60.728 252.136 60.584C252.416 60.432 252.648 60.208 252.832 59.912L253.984 60.584C253.736 61.064 253.372 61.436 252.892 61.7C252.42 61.956 251.872 62.084 251.248 62.084ZM259.215 61.652C259.039 61.796 258.823 61.904 258.567 61.976C258.319 62.048 258.055 62.084 257.775 62.084C257.071 62.084 256.527 61.9 256.143 61.532C255.759 61.164 255.567 60.628 255.567 59.924V56.84H254.511V55.64H255.567V54.176H257.067V55.64H258.783V56.84H257.067V59.888C257.067 60.2 257.143 60.44 257.295 60.608C257.447 60.768 257.667 60.848 257.955 60.848C258.291 60.848 258.571 60.76 258.795 60.584L259.215 61.652ZM266.369 54.224C265.737 54.224 265.421 54.568 265.421 55.256V55.64H267.185V56.84H265.469V62H263.969V56.84H262.913V55.64H263.969V55.232C263.969 54.544 264.169 54.004 264.569 53.612C264.969 53.212 265.533 53.012 266.261 53.012C266.837 53.012 267.289 53.128 267.617 53.36L267.197 54.488C266.941 54.312 266.665 54.224 266.369 54.224ZM270.981 62.084C270.333 62.084 269.749 61.944 269.229 61.664C268.709 61.384 268.301 60.996 268.005 60.5C267.717 59.996 267.573 59.428 267.573 58.796C267.573 58.164 267.717 57.6 268.005 57.104C268.301 56.608 268.709 56.22 269.229 55.94C269.749 55.66 270.333 55.52 270.981 55.52C271.637 55.52 272.225 55.66 272.745 55.94C273.265 56.22 273.669 56.608 273.957 57.104C274.253 57.6 274.401 58.164 274.401 58.796C274.401 59.428 274.253 59.996 273.957 60.5C273.669 60.996 273.265 61.384 272.745 61.664C272.225 61.944 271.637 62.084 270.981 62.084ZM270.981 60.8C271.533 60.8 271.989 60.616 272.349 60.248C272.709 59.88 272.889 59.396 272.889 58.796C272.889 58.196 272.709 57.712 272.349 57.344C271.989 56.976 271.533 56.792 270.981 56.792C270.429 56.792 269.973 56.976 269.613 57.344C269.261 57.712 269.085 58.196 269.085 58.796C269.085 59.396 269.261 59.88 269.613 60.248C269.973 60.616 270.429 60.8 270.981 60.8ZM277.264 56.528C277.696 55.856 278.456 55.52 279.544 55.52V56.948C279.416 56.924 279.3 56.912 279.196 56.912C278.612 56.912 278.156 57.084 277.828 57.428C277.5 57.764 277.336 58.252 277.336 58.892V62H275.836V55.592H277.264V56.528ZM290.071 57.704H291.547V61.052C291.115 61.396 290.611 61.66 290.035 61.844C289.459 62.028 288.867 62.12 288.259 62.12C287.403 62.12 286.631 61.936 285.943 61.568C285.255 61.192 284.715 60.676 284.323 60.02C283.931 59.364 283.735 58.624 283.735 57.8C283.735 56.976 283.931 56.236 284.323 55.58C284.715 54.924 285.255 54.412 285.943 54.044C286.639 53.668 287.419 53.48 288.283 53.48C288.987 53.48 289.627 53.596 290.203 53.828C290.779 54.06 291.263 54.4 291.655 54.848L290.671 55.808C290.031 55.168 289.259 54.848 288.355 54.848C287.763 54.848 287.235 54.972 286.771 55.22C286.315 55.468 285.955 55.816 285.691 56.264C285.435 56.712 285.307 57.224 285.307 57.8C285.307 58.36 285.435 58.864 285.691 59.312C285.955 59.76 286.315 60.112 286.771 60.368C287.235 60.624 287.759 60.752 288.343 60.752C288.999 60.752 289.575 60.608 290.071 60.32V57.704ZM293.461 53.096H294.961V62H293.461V53.096ZM299.809 62.084C299.161 62.084 298.577 61.944 298.057 61.664C297.537 61.384 297.129 60.996 296.833 60.5C296.545 59.996 296.401 59.428 296.401 58.796C296.401 58.164 296.545 57.6 296.833 57.104C297.129 56.608 297.537 56.22 298.057 55.94C298.577 55.66 299.161 55.52 299.809 55.52C300.465 55.52 301.053 55.66 301.573 55.94C302.093 56.22 302.497 56.608 302.785 57.104C303.081 57.6 303.229 58.164 303.229 58.796C303.229 59.428 303.081 59.996 302.785 60.5C302.497 60.996 302.093 61.384 301.573 61.664C301.053 61.944 300.465 62.084 299.809 62.084ZM299.809 60.8C300.361 60.8 300.817 60.616 301.177 60.248C301.537 59.88 301.717 59.396 301.717 58.796C301.717 58.196 301.537 57.712 301.177 57.344C300.817 56.976 300.361 56.792 299.809 56.792C299.257 56.792 298.801 56.976 298.441 57.344C298.089 57.712 297.913 58.196 297.913 58.796C297.913 59.396 298.089 59.88 298.441 60.248C298.801 60.616 299.257 60.8 299.809 60.8ZM308.216 55.52C308.84 55.52 309.396 55.656 309.884 55.928C310.38 56.2 310.768 56.584 311.048 57.08C311.328 57.576 311.468 58.148 311.468 58.796C311.468 59.444 311.328 60.02 311.048 60.524C310.768 61.02 310.38 61.404 309.884 61.676C309.396 61.948 308.84 62.084 308.216 62.084C307.776 62.084 307.372 62.008 307.004 61.856C306.644 61.704 306.34 61.476 306.092 61.172V62H304.664V53.096H306.164V56.372C306.42 56.092 306.72 55.88 307.064 55.736C307.416 55.592 307.8 55.52 308.216 55.52ZM308.048 60.8C308.6 60.8 309.052 60.616 309.404 60.248C309.764 59.88 309.944 59.396 309.944 58.796C309.944 58.196 309.764 57.712 309.404 57.344C309.052 56.976 308.6 56.792 308.048 56.792C307.688 56.792 307.364 56.876 307.076 57.044C306.788 57.204 306.56 57.436 306.392 57.74C306.224 58.044 306.14 58.396 306.14 58.796C306.14 59.196 306.224 59.548 306.392 59.852C306.56 60.156 306.788 60.392 307.076 60.56C307.364 60.72 307.688 60.8 308.048 60.8ZM315.256 55.52C316.2 55.52 316.92 55.748 317.416 56.204C317.92 56.652 318.172 57.332 318.172 58.244V62H316.756V61.22C316.572 61.5 316.308 61.716 315.964 61.868C315.628 62.012 315.22 62.084 314.74 62.084C314.26 62.084 313.84 62.004 313.48 61.844C313.12 61.676 312.84 61.448 312.64 61.16C312.448 60.864 312.352 60.532 312.352 60.164C312.352 59.588 312.564 59.128 312.988 58.784C313.42 58.432 314.096 58.256 315.016 58.256H316.672V58.16C316.672 57.712 316.536 57.368 316.264 57.128C316 56.888 315.604 56.768 315.076 56.768C314.716 56.768 314.36 56.824 314.008 56.936C313.664 57.048 313.372 57.204 313.132 57.404L312.544 56.312C312.88 56.056 313.284 55.86 313.756 55.724C314.228 55.588 314.728 55.52 315.256 55.52ZM315.052 60.992C315.428 60.992 315.76 60.908 316.048 60.74C316.344 60.564 316.552 60.316 316.672 59.996V59.252H315.124C314.26 59.252 313.828 59.536 313.828 60.104C313.828 60.376 313.936 60.592 314.152 60.752C314.368 60.912 314.668 60.992 315.052 60.992ZM320.097 53.096H321.597V62H320.097V53.096ZM325.414 54.92H322.63V53.6H329.758V54.92H326.974V62H325.414V54.92ZM332.893 55.52C333.837 55.52 334.557 55.748 335.053 56.204C335.557 56.652 335.809 57.332 335.809 58.244V62H334.393V61.22C334.209 61.5 333.945 61.716 333.601 61.868C333.265 62.012 332.857 62.084 332.377 62.084C331.897 62.084 331.477 62.004 331.117 61.844C330.757 61.676 330.477 61.448 330.277 61.16C330.085 60.864 329.989 60.532 329.989 60.164C329.989 59.588 330.201 59.128 330.625 58.784C331.057 58.432 331.733 58.256 332.653 58.256H334.309V58.16C334.309 57.712 334.173 57.368 333.901 57.128C333.637 56.888 333.241 56.768 332.713 56.768C332.353 56.768 331.997 56.824 331.645 56.936C331.301 57.048 331.009 57.204 330.769 57.404L330.181 56.312C330.517 56.056 330.921 55.86 331.393 55.724C331.865 55.588 332.365 55.52 332.893 55.52ZM332.689 60.992C333.065 60.992 333.397 60.908 333.685 60.74C333.981 60.564 334.189 60.316 334.309 59.996V59.252H332.761C331.897 59.252 331.465 59.536 331.465 60.104C331.465 60.376 331.573 60.592 331.789 60.752C332.005 60.912 332.305 60.992 332.689 60.992ZM337.734 53.096H339.234V62H337.734V53.096ZM343.819 59.252L342.703 60.308V62H341.203V53.096H342.703V58.472L345.811 55.592H347.611L344.935 58.28L347.863 62H346.039L343.819 59.252ZM349.312 62.084C349.04 62.084 348.808 61.992 348.616 61.808C348.424 61.616 348.328 61.376 348.328 61.088C348.328 60.792 348.42 60.552 348.604 60.368C348.796 60.184 349.032 60.092 349.312 60.092C349.592 60.092 349.824 60.184 350.008 60.368C350.2 60.552 350.296 60.792 350.296 61.088C350.296 61.376 350.2 61.616 350.008 61.808C349.816 61.992 349.584 62.084 349.312 62.084Z" fill="#757575"/>
<path d="M283.207 63.2H347.851V63.8H283.207V63.2Z" fill="#757575"/>
<path d="M1380.02 54.2V64H1378.2V59.8H1373.14V64H1371.32V54.2H1373.14V58.246H1378.2V54.2H1380.02ZM1385.84 64.098C1385.09 64.098 1384.4 63.9347 1383.8 63.608C1383.19 63.2813 1382.72 62.8287 1382.37 62.25C1382.03 61.662 1381.87 60.9993 1381.87 60.262C1381.87 59.5247 1382.03 58.8667 1382.37 58.288C1382.72 57.7093 1383.19 57.2567 1383.8 56.93C1384.4 56.6033 1385.09 56.44 1385.84 56.44C1386.61 56.44 1387.29 56.6033 1387.9 56.93C1388.51 57.2567 1388.98 57.7093 1389.31 58.288C1389.66 58.8667 1389.83 59.5247 1389.83 60.262C1389.83 60.9993 1389.66 61.662 1389.31 62.25C1388.98 62.8287 1388.51 63.2813 1387.9 63.608C1387.29 63.9347 1386.61 64.098 1385.84 64.098ZM1385.84 62.6C1386.49 62.6 1387.02 62.3853 1387.44 61.956C1387.86 61.5267 1388.07 60.962 1388.07 60.262C1388.07 59.562 1387.86 58.9973 1387.44 58.568C1387.02 58.1387 1386.49 57.924 1385.84 57.924C1385.2 57.924 1384.67 58.1387 1384.25 58.568C1383.84 58.9973 1383.63 59.562 1383.63 60.262C1383.63 60.962 1383.84 61.5267 1384.25 61.956C1384.67 62.3853 1385.2 62.6 1385.84 62.6ZM1400.94 56.44C1401.88 56.44 1402.63 56.7153 1403.18 57.266C1403.73 57.8073 1404.01 58.624 1404.01 59.716V64H1402.26V59.94C1402.26 59.2867 1402.11 58.7967 1401.82 58.47C1401.53 58.134 1401.12 57.966 1400.58 57.966C1399.99 57.966 1399.52 58.162 1399.16 58.554C1398.81 58.9367 1398.63 59.4873 1398.63 60.206V64H1396.88V59.94C1396.88 59.2867 1396.74 58.7967 1396.45 58.47C1396.16 58.134 1395.74 57.966 1395.2 57.966C1394.6 57.966 1394.13 58.1573 1393.77 58.54C1393.43 58.9227 1393.26 59.478 1393.26 60.206V64H1391.51V56.524H1393.17V57.476C1393.45 57.14 1393.8 56.8833 1394.22 56.706C1394.64 56.5287 1395.11 56.44 1395.62 56.44C1396.18 56.44 1396.68 56.5473 1397.11 56.762C1397.54 56.9673 1397.89 57.2753 1398.14 57.686C1398.45 57.294 1398.85 56.9907 1399.33 56.776C1399.82 56.552 1400.35 56.44 1400.94 56.44ZM1413.34 60.304C1413.34 60.4253 1413.33 60.598 1413.31 60.822H1407.45C1407.55 61.3727 1407.81 61.8113 1408.24 62.138C1408.68 62.4553 1409.22 62.614 1409.87 62.614C1410.69 62.614 1411.37 62.3433 1411.9 61.802L1412.84 62.88C1412.5 63.2813 1412.08 63.5847 1411.56 63.79C1411.05 63.9953 1410.47 64.098 1409.83 64.098C1409 64.098 1408.28 63.9347 1407.66 63.608C1407.03 63.2813 1406.55 62.8287 1406.2 62.25C1405.86 61.662 1405.7 60.9993 1405.7 60.262C1405.7 59.534 1405.86 58.8807 1406.19 58.302C1406.52 57.714 1406.98 57.2567 1407.57 56.93C1408.16 56.6033 1408.82 56.44 1409.56 56.44C1410.29 56.44 1410.94 56.6033 1411.51 56.93C1412.08 57.2473 1412.53 57.7 1412.85 58.288C1413.18 58.8667 1413.34 59.5387 1413.34 60.304ZM1409.56 57.84C1409 57.84 1408.52 58.008 1408.13 58.344C1407.75 58.6707 1407.52 59.1093 1407.43 59.66H1411.67C1411.6 59.1187 1411.37 58.68 1410.99 58.344C1410.61 58.008 1410.13 57.84 1409.56 57.84Z" fill="#757575"/>
<path d="M1447.3 55.74H1444.06V54.2H1452.37V55.74H1449.12V64H1447.3V55.74ZM1459.83 60.304C1459.83 60.4253 1459.82 60.598 1459.8 60.822H1453.94C1454.04 61.3727 1454.31 61.8113 1454.74 62.138C1455.17 62.4553 1455.72 62.614 1456.36 62.614C1457.18 62.614 1457.86 62.3433 1458.39 61.802L1459.33 62.88C1458.99 63.2813 1458.57 63.5847 1458.05 63.79C1457.54 63.9953 1456.96 64.098 1456.32 64.098C1455.5 64.098 1454.77 63.9347 1454.15 63.608C1453.52 63.2813 1453.04 62.8287 1452.69 62.25C1452.36 61.662 1452.19 60.9993 1452.19 60.262C1452.19 59.534 1452.35 58.8807 1452.68 58.302C1453.01 57.714 1453.48 57.2567 1454.06 56.93C1454.65 56.6033 1455.31 56.44 1456.05 56.44C1456.78 56.44 1457.43 56.6033 1458 56.93C1458.58 57.2473 1459.02 57.7 1459.34 58.288C1459.67 58.8667 1459.83 59.5387 1459.83 60.304ZM1456.05 57.84C1455.49 57.84 1455.02 58.008 1454.62 58.344C1454.24 58.6707 1454.01 59.1093 1453.92 59.66H1458.17C1458.09 59.1187 1457.86 58.68 1457.48 58.344C1457.1 58.008 1456.62 57.84 1456.05 57.84ZM1466.07 64L1464.15 61.41L1462.22 64H1460.29L1463.2 60.206L1460.41 56.524H1462.36L1464.19 58.974L1466.03 56.524H1467.92L1465.12 60.178L1468.04 64H1466.07ZM1473.83 63.594C1473.62 63.762 1473.37 63.888 1473.07 63.972C1472.78 64.056 1472.47 64.098 1472.15 64.098C1471.33 64.098 1470.69 63.8833 1470.24 63.454C1469.8 63.0247 1469.57 62.3993 1469.57 61.578V57.98H1468.34V56.58H1469.57V54.872H1471.32V56.58H1473.32V57.98H1471.32V61.536C1471.32 61.9 1471.41 62.18 1471.59 62.376C1471.76 62.5627 1472.02 62.656 1472.36 62.656C1472.75 62.656 1473.08 62.5533 1473.34 62.348L1473.83 63.594ZM1479.41 56.44C1480.14 56.44 1480.79 56.5987 1481.36 56.916C1481.94 57.2333 1482.39 57.6813 1482.72 58.26C1483.04 58.8387 1483.21 59.506 1483.21 60.262C1483.21 61.018 1483.04 61.69 1482.72 62.278C1482.39 62.8567 1481.94 63.3047 1481.36 63.622C1480.79 63.9393 1480.14 64.098 1479.41 64.098C1478.9 64.098 1478.43 64.0093 1478 63.832C1477.58 63.6547 1477.22 63.3887 1476.93 63.034V64H1475.27V53.612H1477.02V57.434C1477.32 57.1073 1477.67 56.86 1478.07 56.692C1478.48 56.524 1478.93 56.44 1479.41 56.44ZM1479.22 62.6C1479.86 62.6 1480.39 62.3853 1480.8 61.956C1481.22 61.5267 1481.43 60.962 1481.43 60.262C1481.43 59.562 1481.22 58.9973 1480.8 58.568C1480.39 58.1387 1479.86 57.924 1479.22 57.924C1478.8 57.924 1478.42 58.022 1478.08 58.218C1477.75 58.4047 1477.48 58.6753 1477.28 59.03C1477.09 59.3847 1476.99 59.7953 1476.99 60.262C1476.99 60.7287 1477.09 61.1393 1477.28 61.494C1477.48 61.8487 1477.75 62.124 1478.08 62.32C1478.42 62.5067 1478.8 62.6 1479.22 62.6ZM1488.22 64.098C1487.47 64.098 1486.79 63.9347 1486.18 63.608C1485.57 63.2813 1485.1 62.8287 1484.75 62.25C1484.42 61.662 1484.25 60.9993 1484.25 60.262C1484.25 59.5247 1484.42 58.8667 1484.75 58.288C1485.1 57.7093 1485.57 57.2567 1486.18 56.93C1486.79 56.6033 1487.47 56.44 1488.22 56.44C1488.99 56.44 1489.68 56.6033 1490.28 56.93C1490.89 57.2567 1491.36 57.7093 1491.7 58.288C1492.04 58.8667 1492.21 59.5247 1492.21 60.262C1492.21 60.9993 1492.04 61.662 1491.7 62.25C1491.36 62.8287 1490.89 63.2813 1490.28 63.608C1489.68 63.9347 1488.99 64.098 1488.22 64.098ZM1488.22 62.6C1488.87 62.6 1489.4 62.3853 1489.82 61.956C1490.24 61.5267 1490.45 60.962 1490.45 60.262C1490.45 59.562 1490.24 58.9973 1489.82 58.568C1489.4 58.1387 1488.87 57.924 1488.22 57.924C1487.58 57.924 1487.05 58.1387 1486.63 58.568C1486.22 58.9973 1486.01 59.562 1486.01 60.262C1486.01 60.962 1486.22 61.5267 1486.63 61.956C1487.05 62.3853 1487.58 62.6 1488.22 62.6ZM1497.25 64.098C1496.49 64.098 1495.81 63.9347 1495.2 63.608C1494.6 63.2813 1494.12 62.8287 1493.78 62.25C1493.44 61.662 1493.27 60.9993 1493.27 60.262C1493.27 59.5247 1493.44 58.8667 1493.78 58.288C1494.12 57.7093 1494.6 57.2567 1495.2 56.93C1495.81 56.6033 1496.49 56.44 1497.25 56.44C1498.01 56.44 1498.7 56.6033 1499.31 56.93C1499.91 57.2567 1500.38 57.7093 1500.72 58.288C1501.07 58.8667 1501.24 59.5247 1501.24 60.262C1501.24 60.9993 1501.07 61.662 1500.72 62.25C1500.38 62.8287 1499.91 63.2813 1499.31 63.608C1498.7 63.9347 1498.01 64.098 1497.25 64.098ZM1497.25 62.6C1497.89 62.6 1498.42 62.3853 1498.84 61.956C1499.26 61.5267 1499.47 60.962 1499.47 60.262C1499.47 59.562 1499.26 58.9973 1498.84 58.568C1498.42 58.1387 1497.89 57.924 1497.25 57.924C1496.6 57.924 1496.07 58.1387 1495.65 58.568C1495.24 58.9973 1495.04 59.562 1495.04 60.262C1495.04 60.962 1495.24 61.5267 1495.65 61.956C1496.07 62.3853 1496.6 62.6 1497.25 62.6ZM1505.96 60.794L1504.66 62.026V64H1502.91V53.612H1504.66V59.884L1508.29 56.524H1510.39L1507.27 59.66L1510.68 64H1508.55L1505.96 60.794Z" fill="#757575"/>
<path d="M1545.35 64.14C1544.59 64.14 1543.86 64.0327 1543.16 63.818C1542.46 63.594 1541.9 63.3093 1541.49 62.964L1542.12 61.55C1542.51 61.858 1543 62.1147 1543.58 62.32C1544.15 62.5253 1544.75 62.628 1545.35 62.628C1545.87 62.628 1546.28 62.572 1546.6 62.46C1546.92 62.348 1547.15 62.1987 1547.3 62.012C1547.45 61.816 1547.52 61.5967 1547.52 61.354C1547.52 61.0553 1547.42 60.8173 1547.2 60.64C1546.99 60.4533 1546.71 60.3087 1546.36 60.206C1546.03 60.094 1545.65 59.9913 1545.23 59.898C1544.82 59.8047 1544.4 59.6973 1543.98 59.576C1543.57 59.4453 1543.19 59.282 1542.85 59.086C1542.51 58.8807 1542.24 58.61 1542.02 58.274C1541.81 57.938 1541.7 57.5087 1541.7 56.986C1541.7 56.454 1541.84 55.9687 1542.12 55.53C1542.41 55.082 1542.84 54.7273 1543.42 54.466C1544.01 54.1953 1544.75 54.06 1545.65 54.06C1546.24 54.06 1546.82 54.1347 1547.4 54.284C1547.98 54.4333 1548.48 54.648 1548.91 54.928L1548.34 56.342C1547.9 56.0807 1547.44 55.8893 1546.98 55.768C1546.51 55.6373 1546.06 55.572 1545.63 55.572C1545.13 55.572 1544.72 55.6327 1544.4 55.754C1544.09 55.8753 1543.87 56.034 1543.72 56.23C1543.58 56.426 1543.51 56.65 1543.51 56.902C1543.51 57.2007 1543.61 57.4433 1543.81 57.63C1544.03 57.8073 1544.3 57.9473 1544.64 58.05C1544.99 58.1527 1545.37 58.2553 1545.79 58.358C1546.21 58.4513 1546.62 58.5587 1547.03 58.68C1547.45 58.8013 1547.83 58.96 1548.17 59.156C1548.51 59.352 1548.79 59.618 1548.99 59.954C1549.21 60.29 1549.32 60.7147 1549.32 61.228C1549.32 61.7507 1549.17 62.236 1548.88 62.684C1548.6 63.1227 1548.17 63.4773 1547.58 63.748C1546.99 64.0093 1546.25 64.14 1545.35 64.14ZM1553.77 64.098C1552.95 64.098 1552.31 63.888 1551.86 63.468C1551.41 63.0387 1551.19 62.4087 1551.19 61.578V54.872H1552.94V61.536C1552.94 61.8907 1553.03 62.166 1553.21 62.362C1553.39 62.558 1553.65 62.656 1553.98 62.656C1554.37 62.656 1554.7 62.5533 1554.96 62.348L1555.45 63.594C1555.24 63.762 1554.99 63.888 1554.69 63.972C1554.39 64.056 1554.08 64.098 1553.77 64.098ZM1549.96 57.98V56.58H1554.94V57.98H1549.96ZM1561.49 64V62.488L1561.39 62.166V59.52C1561.39 59.0067 1561.24 58.61 1560.93 58.33C1560.62 58.0407 1560.16 57.896 1559.53 57.896C1559.11 57.896 1558.7 57.9613 1558.29 58.092C1557.88 58.2227 1557.54 58.4047 1557.26 58.638L1556.58 57.364C1556.98 57.056 1557.46 56.8273 1558.01 56.678C1558.57 56.5193 1559.14 56.44 1559.74 56.44C1560.82 56.44 1561.66 56.7013 1562.25 57.224C1562.85 57.7373 1563.14 58.5353 1563.14 59.618V64H1561.49ZM1559.14 64.098C1558.58 64.098 1558.09 64.0047 1557.67 63.818C1557.25 63.622 1556.92 63.356 1556.69 63.02C1556.47 62.6747 1556.35 62.2873 1556.35 61.858C1556.35 61.438 1556.45 61.06 1556.65 60.724C1556.85 60.388 1557.18 60.122 1557.64 59.926C1558.1 59.73 1558.71 59.632 1559.46 59.632H1561.63V60.794H1559.59C1558.99 60.794 1558.59 60.892 1558.38 61.088C1558.18 61.2747 1558.08 61.508 1558.08 61.788C1558.08 62.1053 1558.2 62.3573 1558.45 62.544C1558.71 62.7307 1559.06 62.824 1559.5 62.824C1559.93 62.824 1560.32 62.726 1560.65 62.53C1561 62.334 1561.24 62.0447 1561.39 61.662L1561.69 62.712C1561.52 63.1507 1561.22 63.4913 1560.78 63.734C1560.35 63.9767 1559.8 64.098 1559.14 64.098ZM1568.2 64.098C1567.38 64.098 1566.75 63.888 1566.3 63.468C1565.85 63.0387 1565.63 62.4087 1565.63 61.578V54.872H1567.38V61.536C1567.38 61.8907 1567.47 62.166 1567.64 62.362C1567.83 62.558 1568.09 62.656 1568.41 62.656C1568.81 62.656 1569.13 62.5533 1569.39 62.348L1569.88 63.594C1569.68 63.762 1569.43 63.888 1569.13 63.972C1568.83 64.056 1568.52 64.098 1568.2 64.098ZM1564.4 57.98V56.58H1569.38V57.98H1564.4ZM1571.32 64V56.524H1573.07V64H1571.32ZM1572.21 55.292C1571.88 55.292 1571.61 55.1893 1571.39 54.984C1571.19 54.7787 1571.09 54.5313 1571.09 54.242C1571.09 53.9433 1571.19 53.696 1571.39 53.5C1571.61 53.2947 1571.88 53.192 1572.21 53.192C1572.53 53.192 1572.8 53.29 1573 53.486C1573.22 53.6727 1573.33 53.9107 1573.33 54.2C1573.33 54.508 1573.22 54.7693 1573.02 54.984C1572.81 55.1893 1572.54 55.292 1572.21 55.292ZM1577.68 64.098C1577.06 64.098 1576.45 64.0187 1575.87 63.86C1575.31 63.692 1574.85 63.4913 1574.52 63.258L1575.19 61.928C1575.52 62.1427 1575.93 62.32 1576.39 62.46C1576.86 62.6 1577.33 62.67 1577.79 62.67C1578.34 62.67 1578.74 62.5953 1578.98 62.446C1579.23 62.2967 1579.36 62.096 1579.36 61.844C1579.36 61.6387 1579.28 61.4847 1579.11 61.382C1578.94 61.27 1578.72 61.186 1578.45 61.13C1578.18 61.074 1577.88 61.0227 1577.54 60.976C1577.21 60.9293 1576.88 60.8687 1576.55 60.794C1576.22 60.71 1575.92 60.5933 1575.65 60.444C1575.38 60.2853 1575.16 60.0753 1574.99 59.814C1574.82 59.5527 1574.74 59.2073 1574.74 58.778C1574.74 58.302 1574.88 57.8913 1575.15 57.546C1575.42 57.1913 1575.8 56.9207 1576.28 56.734C1576.78 56.538 1577.36 56.44 1578.03 56.44C1578.53 56.44 1579.04 56.496 1579.56 56.608C1580.07 56.72 1580.49 56.8787 1580.83 57.084L1580.16 58.414C1579.8 58.1993 1579.44 58.0547 1579.08 57.98C1578.73 57.896 1578.37 57.854 1578.02 57.854C1577.48 57.854 1577.09 57.9333 1576.83 58.092C1576.57 58.2507 1576.45 58.4513 1576.45 58.694C1576.45 58.918 1576.53 59.086 1576.7 59.198C1576.87 59.31 1577.09 59.3987 1577.36 59.464C1577.63 59.5293 1577.93 59.5853 1578.25 59.632C1578.59 59.6693 1578.92 59.73 1579.25 59.814C1579.58 59.898 1579.87 60.0147 1580.14 60.164C1580.42 60.304 1580.65 60.5047 1580.82 60.766C1580.98 61.0273 1581.07 61.368 1581.07 61.788C1581.07 62.2547 1580.93 62.6607 1580.65 63.006C1580.38 63.3513 1579.99 63.622 1579.49 63.818C1578.98 64.0047 1578.38 64.098 1577.68 64.098ZM1585.39 64.098C1584.57 64.098 1583.93 63.888 1583.49 63.468C1583.04 63.0387 1582.81 62.4087 1582.81 61.578V54.872H1584.56V61.536C1584.56 61.8907 1584.65 62.166 1584.83 62.362C1585.02 62.558 1585.27 62.656 1585.6 62.656C1585.99 62.656 1586.32 62.5533 1586.58 62.348L1587.07 63.594C1586.86 63.762 1586.61 63.888 1586.31 63.972C1586.02 64.056 1585.71 64.098 1585.39 64.098ZM1581.58 57.98V56.58H1586.57V57.98H1581.58ZM1588.51 64V56.524H1590.26V64H1588.51ZM1589.39 55.292C1589.06 55.292 1588.79 55.1893 1588.58 54.984C1588.37 54.7787 1588.27 54.5313 1588.27 54.242C1588.27 53.9433 1588.37 53.696 1588.58 53.5C1588.79 53.2947 1589.06 53.192 1589.39 53.192C1589.72 53.192 1589.98 53.29 1590.19 53.486C1590.4 53.6727 1590.51 53.9107 1590.51 54.2C1590.51 54.508 1590.41 54.7693 1590.2 54.984C1590 55.1893 1589.73 55.292 1589.39 55.292ZM1595.99 64.098C1595.2 64.098 1594.5 63.9347 1593.89 63.608C1593.28 63.272 1592.8 62.8147 1592.46 62.236C1592.11 61.6573 1591.94 60.9993 1591.94 60.262C1591.94 59.5153 1592.11 58.8573 1592.46 58.288C1592.8 57.7093 1593.28 57.2567 1593.89 56.93C1594.5 56.6033 1595.2 56.44 1595.99 56.44C1596.71 56.44 1597.35 56.5893 1597.9 56.888C1598.46 57.1773 1598.89 57.6067 1599.18 58.176L1597.83 58.96C1597.61 58.6053 1597.33 58.344 1597.01 58.176C1596.69 58.008 1596.35 57.924 1595.97 57.924C1595.54 57.924 1595.16 58.0173 1594.81 58.204C1594.46 58.3907 1594.19 58.6613 1594 59.016C1593.8 59.3613 1593.7 59.7767 1593.7 60.262C1593.7 60.7473 1593.8 61.1673 1594 61.522C1594.19 61.8673 1594.46 62.1333 1594.81 62.32C1595.16 62.5067 1595.54 62.6 1595.97 62.6C1596.35 62.6 1596.69 62.516 1597.01 62.348C1597.33 62.18 1597.61 61.9187 1597.83 61.564L1599.18 62.348C1598.89 62.908 1598.46 63.342 1597.9 63.65C1597.35 63.9487 1596.71 64.098 1595.99 64.098ZM1603 64.098C1602.38 64.098 1601.77 64.0187 1601.19 63.86C1600.63 63.692 1600.17 63.4913 1599.84 63.258L1600.51 61.928C1600.84 62.1427 1601.25 62.32 1601.71 62.46C1602.18 62.6 1602.65 62.67 1603.11 62.67C1603.66 62.67 1604.06 62.5953 1604.3 62.446C1604.55 62.2967 1604.68 62.096 1604.68 61.844C1604.68 61.6387 1604.6 61.4847 1604.43 61.382C1604.26 61.27 1604.04 61.186 1603.77 61.13C1603.5 61.074 1603.2 61.0227 1602.86 60.976C1602.53 60.9293 1602.2 60.8687 1601.87 60.794C1601.54 60.71 1601.24 60.5933 1600.97 60.444C1600.7 60.2853 1600.48 60.0753 1600.31 59.814C1600.14 59.5527 1600.06 59.2073 1600.06 58.778C1600.06 58.302 1600.2 57.8913 1600.47 57.546C1600.74 57.1913 1601.12 56.9207 1601.6 56.734C1602.1 56.538 1602.68 56.44 1603.35 56.44C1603.85 56.44 1604.36 56.496 1604.88 56.608C1605.39 56.72 1605.81 56.8787 1606.15 57.084L1605.48 58.414C1605.12 58.1993 1604.76 58.0547 1604.4 57.98C1604.05 57.896 1603.69 57.854 1603.34 57.854C1602.8 57.854 1602.41 57.9333 1602.15 58.092C1601.89 58.2507 1601.77 58.4513 1601.77 58.694C1601.77 58.918 1601.85 59.086 1602.02 59.198C1602.19 59.31 1602.41 59.3987 1602.68 59.464C1602.95 59.5293 1603.25 59.5853 1603.57 59.632C1603.91 59.6693 1604.24 59.73 1604.57 59.814C1604.9 59.898 1605.19 60.0147 1605.46 60.164C1605.74 60.304 1605.97 60.5047 1606.14 60.766C1606.3 61.0273 1606.39 61.368 1606.39 61.788C1606.39 62.2547 1606.25 62.6607 1605.97 63.006C1605.7 63.3513 1605.31 63.622 1604.81 63.818C1604.3 64.0047 1603.7 64.098 1603 64.098Z" fill="#757575"/>
<path d="M1641.35 64.14C1640.6 64.14 1639.87 64.0327 1639.16 63.818C1638.46 63.6033 1637.9 63.3187 1637.49 62.964L1638.12 61.55C1638.52 61.8673 1639.01 62.1287 1639.59 62.334C1640.18 62.53 1640.77 62.628 1641.35 62.628C1642.08 62.628 1642.62 62.5113 1642.98 62.278C1643.34 62.0447 1643.52 61.7367 1643.52 61.354C1643.52 61.074 1643.42 60.8453 1643.22 60.668C1643.02 60.4813 1642.77 60.3367 1642.46 60.234C1642.15 60.1313 1641.73 60.0147 1641.2 59.884C1640.45 59.7067 1639.85 59.5293 1639.38 59.352C1638.92 59.1747 1638.53 58.8993 1638.19 58.526C1637.86 58.1433 1637.7 57.63 1637.7 56.986C1637.7 56.4447 1637.84 55.9547 1638.13 55.516C1638.43 55.068 1638.88 54.7133 1639.46 54.452C1640.06 54.1907 1640.79 54.06 1641.65 54.06C1642.25 54.06 1642.83 54.1347 1643.41 54.284C1643.99 54.4333 1644.49 54.648 1644.91 54.928L1644.34 56.342C1643.91 56.09 1643.46 55.8987 1642.99 55.768C1642.53 55.6373 1642.07 55.572 1641.63 55.572C1640.92 55.572 1640.38 55.6933 1640.02 55.936C1639.68 56.1787 1639.51 56.5007 1639.51 56.902C1639.51 57.182 1639.6 57.4107 1639.8 57.588C1640.01 57.7653 1640.26 57.9053 1640.57 58.008C1640.88 58.1107 1641.3 58.2273 1641.83 58.358C1642.56 58.526 1643.16 58.7033 1643.62 58.89C1644.09 59.0673 1644.49 59.3427 1644.81 59.716C1645.15 60.0893 1645.32 60.5933 1645.32 61.228C1645.32 61.7693 1645.17 62.2593 1644.87 62.698C1644.58 63.1367 1644.14 63.4867 1643.54 63.748C1642.94 64.0093 1642.21 64.14 1641.35 64.14ZM1651.1 56.44C1651.82 56.44 1652.47 56.5987 1653.04 56.916C1653.62 57.2333 1654.07 57.6813 1654.4 58.26C1654.73 58.8387 1654.89 59.506 1654.89 60.262C1654.89 61.018 1654.73 61.69 1654.4 62.278C1654.07 62.8567 1653.62 63.3047 1653.04 63.622C1652.47 63.9393 1651.82 64.098 1651.1 64.098C1650.09 64.098 1649.29 63.762 1648.7 63.09V66.716H1646.95V56.524H1648.62V57.504C1648.91 57.1493 1649.26 56.8833 1649.68 56.706C1650.11 56.5287 1650.58 56.44 1651.1 56.44ZM1650.9 62.6C1651.54 62.6 1652.07 62.3853 1652.48 61.956C1652.9 61.5267 1653.11 60.962 1653.11 60.262C1653.11 59.562 1652.9 58.9973 1652.48 58.568C1652.07 58.1387 1651.54 57.924 1650.9 57.924C1650.48 57.924 1650.1 58.022 1649.77 58.218C1649.43 58.4047 1649.16 58.6753 1648.97 59.03C1648.77 59.3847 1648.67 59.7953 1648.67 60.262C1648.67 60.7287 1648.77 61.1393 1648.97 61.494C1649.16 61.8487 1649.43 62.124 1649.77 62.32C1650.1 62.5067 1650.48 62.6 1650.9 62.6ZM1658.22 57.616C1658.72 56.832 1659.61 56.44 1660.88 56.44V58.106C1660.73 58.078 1660.59 58.064 1660.47 58.064C1659.79 58.064 1659.26 58.2647 1658.87 58.666C1658.49 59.058 1658.3 59.6273 1658.3 60.374V64H1656.55V56.524H1658.22V57.616ZM1662.36 56.524H1664.11V64H1662.36V56.524ZM1663.24 55.292C1662.93 55.292 1662.66 55.194 1662.44 54.998C1662.23 54.7927 1662.12 54.5407 1662.12 54.242C1662.12 53.9433 1662.23 53.696 1662.44 53.5C1662.66 53.2947 1662.93 53.192 1663.24 53.192C1663.56 53.192 1663.83 53.29 1664.04 53.486C1664.26 53.6727 1664.36 53.9107 1664.36 54.2C1664.36 54.508 1664.26 54.7693 1664.04 54.984C1663.84 55.1893 1663.57 55.292 1663.24 55.292ZM1670.65 56.44C1671.59 56.44 1672.35 56.7153 1672.92 57.266C1673.49 57.8167 1673.77 58.6333 1673.77 59.716V64H1672.02V59.94C1672.02 59.2867 1671.87 58.7967 1671.56 58.47C1671.25 58.134 1670.81 57.966 1670.24 57.966C1669.6 57.966 1669.09 58.162 1668.72 58.554C1668.34 58.9367 1668.16 59.492 1668.16 60.22V64H1666.41V56.524H1668.07V57.49C1668.36 57.1447 1668.73 56.8833 1669.17 56.706C1669.6 56.5287 1670.1 56.44 1670.65 56.44ZM1680.49 63.594C1680.28 63.762 1680.03 63.888 1679.73 63.972C1679.44 64.056 1679.13 64.098 1678.81 64.098C1677.98 64.098 1677.35 63.8833 1676.9 63.454C1676.45 63.0247 1676.23 62.3993 1676.23 61.578V57.98H1675V56.58H1676.23V54.872H1677.98V56.58H1679.98V57.98H1677.98V61.536C1677.98 61.9 1678.07 62.18 1678.25 62.376C1678.42 62.5627 1678.68 62.656 1679.02 62.656C1679.41 62.656 1679.73 62.5533 1680 62.348L1680.49 63.594Z" fill="#757575"/>
<path d="M1718.67 61.732H1713.77L1712.81 64H1710.93L1715.34 54.2H1717.13L1721.56 64H1719.65L1718.67 61.732ZM1718.07 60.304L1716.22 56.02L1714.39 60.304H1718.07ZM1729.74 56.524V64H1728.07V63.048C1727.79 63.384 1727.44 63.6453 1727.02 63.832C1726.6 64.0093 1726.15 64.098 1725.66 64.098C1724.66 64.098 1723.87 63.8227 1723.3 63.272C1722.73 62.712 1722.44 61.886 1722.44 60.794V56.524H1724.19V60.556C1724.19 61.228 1724.34 61.732 1724.64 62.068C1724.95 62.3947 1725.38 62.558 1725.94 62.558C1726.57 62.558 1727.06 62.3667 1727.43 61.984C1727.8 61.592 1727.99 61.032 1727.99 60.304V56.524H1729.74ZM1739.35 53.612V64H1737.67V63.034C1737.38 63.3887 1737.02 63.6547 1736.59 63.832C1736.17 64.0093 1735.7 64.098 1735.19 64.098C1734.47 64.098 1733.82 63.9393 1733.24 63.622C1732.68 63.3047 1732.23 62.8567 1731.9 62.278C1731.57 61.69 1731.41 61.018 1731.41 60.262C1731.41 59.506 1731.57 58.8387 1731.9 58.26C1732.23 57.6813 1732.68 57.2333 1733.24 56.916C1733.82 56.5987 1734.47 56.44 1735.19 56.44C1735.69 56.44 1736.14 56.524 1736.55 56.692C1736.96 56.86 1737.31 57.112 1737.6 57.448V53.612H1739.35ZM1735.4 62.6C1735.82 62.6 1736.2 62.5067 1736.53 62.32C1736.87 62.124 1737.14 61.8487 1737.33 61.494C1737.53 61.1393 1737.63 60.7287 1737.63 60.262C1737.63 59.7953 1737.53 59.3847 1737.33 59.03C1737.14 58.6753 1736.87 58.4047 1736.53 58.218C1736.2 58.022 1735.82 57.924 1735.4 57.924C1734.98 57.924 1734.6 58.022 1734.27 58.218C1733.93 58.4047 1733.66 58.6753 1733.47 59.03C1733.27 59.3847 1733.17 59.7953 1733.17 60.262C1733.17 60.7287 1733.27 61.1393 1733.47 61.494C1733.66 61.8487 1733.93 62.124 1734.27 62.32C1734.6 62.5067 1734.98 62.6 1735.4 62.6ZM1741.64 56.524H1743.39V64H1741.64V56.524ZM1742.52 55.292C1742.2 55.292 1741.94 55.194 1741.72 54.998C1741.51 54.7927 1741.4 54.5407 1741.4 54.242C1741.4 53.9433 1741.51 53.696 1741.72 53.5C1741.94 53.2947 1742.2 53.192 1742.52 53.192C1742.84 53.192 1743.1 53.29 1743.32 53.486C1743.53 53.6727 1743.64 53.9107 1743.64 54.2C1743.64 54.508 1743.53 54.7693 1743.32 54.984C1743.11 55.1893 1742.85 55.292 1742.52 55.292ZM1749.05 64.098C1748.29 64.098 1747.61 63.9347 1747 63.608C1746.39 63.2813 1745.92 62.8287 1745.57 62.25C1745.24 61.662 1745.07 60.9993 1745.07 60.262C1745.07 59.5247 1745.24 58.8667 1745.57 58.288C1745.92 57.7093 1746.39 57.2567 1747 56.93C1747.61 56.6033 1748.29 56.44 1749.05 56.44C1749.81 56.44 1750.5 56.6033 1751.1 56.93C1751.71 57.2567 1752.18 57.7093 1752.52 58.288C1752.86 58.8667 1753.04 59.5247 1753.04 60.262C1753.04 60.9993 1752.86 61.662 1752.52 62.25C1752.18 62.8287 1751.71 63.2813 1751.1 63.608C1750.5 63.9347 1749.81 64.098 1749.05 64.098ZM1749.05 62.6C1749.69 62.6 1750.22 62.3853 1750.64 61.956C1751.06 61.5267 1751.27 60.962 1751.27 60.262C1751.27 59.562 1751.06 58.9973 1750.64 58.568C1750.22 58.1387 1749.69 57.924 1749.05 57.924C1748.4 57.924 1747.87 58.1387 1747.45 58.568C1747.04 58.9973 1746.83 59.562 1746.83 60.262C1746.83 60.962 1747.04 61.5267 1747.45 61.956C1747.87 62.3853 1748.4 62.6 1749.05 62.6ZM1754.47 59.38H1758.32V60.836H1754.47V59.38ZM1763.8 64.098C1763.02 64.098 1762.33 63.9347 1761.71 63.608C1761.1 63.2813 1760.62 62.8287 1760.27 62.25C1759.93 61.662 1759.75 60.9993 1759.75 60.262C1759.75 59.5247 1759.93 58.8667 1760.27 58.288C1760.62 57.7093 1761.09 57.2567 1761.7 56.93C1762.31 56.6033 1763.01 56.44 1763.8 56.44C1764.54 56.44 1765.18 56.5893 1765.73 56.888C1766.29 57.1867 1766.71 57.616 1766.99 58.176L1765.65 58.96C1765.43 58.6147 1765.16 58.358 1764.83 58.19C1764.52 58.0127 1764.17 57.924 1763.78 57.924C1763.13 57.924 1762.59 58.1387 1762.16 58.568C1761.73 58.988 1761.52 59.5527 1761.52 60.262C1761.52 60.9713 1761.73 61.5407 1762.15 61.97C1762.58 62.39 1763.12 62.6 1763.78 62.6C1764.17 62.6 1764.52 62.516 1764.83 62.348C1765.16 62.1707 1765.43 61.9093 1765.65 61.564L1766.99 62.348C1766.7 62.908 1766.28 63.342 1765.72 63.65C1765.17 63.9487 1764.53 64.098 1763.8 64.098ZM1771.36 56.44C1772.46 56.44 1773.3 56.706 1773.88 57.238C1774.47 57.7607 1774.76 58.554 1774.76 59.618V64H1773.11V63.09C1772.89 63.4167 1772.59 63.6687 1772.19 63.846C1771.79 64.014 1771.32 64.098 1770.76 64.098C1770.2 64.098 1769.71 64.0047 1769.29 63.818C1768.87 63.622 1768.54 63.356 1768.31 63.02C1768.08 62.6747 1767.97 62.2873 1767.97 61.858C1767.97 61.186 1768.22 60.6493 1768.71 60.248C1769.22 59.8373 1770.01 59.632 1771.08 59.632H1773.01V59.52C1773.01 58.9973 1772.85 58.596 1772.54 58.316C1772.23 58.036 1771.77 57.896 1771.15 57.896C1770.73 57.896 1770.31 57.9613 1769.9 58.092C1769.5 58.2227 1769.16 58.4047 1768.88 58.638L1768.2 57.364C1768.59 57.0653 1769.06 56.8367 1769.61 56.678C1770.16 56.5193 1770.74 56.44 1771.36 56.44ZM1771.12 62.824C1771.56 62.824 1771.95 62.726 1772.28 62.53C1772.63 62.3247 1772.87 62.0353 1773.01 61.662V60.794H1771.21C1770.2 60.794 1769.69 61.1253 1769.69 61.788C1769.69 62.1053 1769.82 62.3573 1770.07 62.544C1770.32 62.7307 1770.67 62.824 1771.12 62.824ZM1777.01 53.612H1778.76V64H1777.01V53.612ZM1781.05 53.612H1782.8V64H1781.05V53.612Z" fill="#757575"/>
</svg>
