<svg width="478" height="196" viewBox="0 0 478 196" fill="none" xmlns="http://www.w3.org/2000/svg">
<path d="M15.904 35.188C26.7307 35.1133 35.6907 34.9267 42.784 34.628C42.2987 36.532 42 38.3613 41.888 40.116C41.776 41.8707 41.72 43.9987 41.72 46.5H2.24C2.53867 39.2573 2.688 32.4813 2.688 26.172C2.688 19.8627 2.53867 13.0867 2.24 5.844H15.904V35.188ZM73.5381 32.5H55.2821C55.5807 34.1427 56.3087 35.4867 57.4661 36.532C58.6607 37.54 60.3407 38.044 62.5061 38.044C64.0741 38.044 65.5487 37.7453 66.9301 37.148C68.3114 36.5133 69.4127 35.636 70.2341 34.516C72.7354 35.748 76.0581 37.0733 80.2021 38.492C79.0447 41.1053 76.9354 43.196 73.8741 44.764C70.8501 46.2947 66.8927 47.06 62.0021 47.06C55.6554 47.06 50.9514 45.604 47.8901 42.692C44.8661 39.7427 43.3541 35.8787 43.3541 31.1C43.3541 26.4333 44.8661 22.644 47.8901 19.732C50.9141 16.82 55.6181 15.364 62.0021 15.364C65.8101 15.364 69.1141 15.9987 71.9141 17.268C74.7141 18.5373 76.8607 20.3107 78.3541 22.588C79.8474 24.828 80.5941 27.404 80.5941 30.316C80.5941 31.2867 80.5567 32.0147 80.4821 32.5H73.5381ZM62.7861 23.82C60.9194 23.82 59.3887 24.1747 58.1941 24.884C56.9994 25.5933 56.1594 26.564 55.6741 27.796H68.8901C68.4421 26.6013 67.7141 25.6493 66.7061 24.94C65.6981 24.1933 64.3914 23.82 62.7861 23.82ZM118.148 37.204C118.148 38.4733 118.298 39.3693 118.596 39.892C118.895 40.4147 119.492 40.788 120.388 41.012L120.164 46.276C118.97 46.4627 117.924 46.5933 117.028 46.668C116.17 46.7427 115.012 46.78 113.556 46.78C110.346 46.78 108.218 46.0707 107.172 44.652C106.127 43.196 105.604 41.348 105.604 39.108V37.708C104.522 40.7693 102.935 43.0467 100.844 44.54C98.7909 46.0333 96.1589 46.78 92.9482 46.78C89.2149 46.78 86.3962 46.0333 84.4922 44.54C82.6255 43.0467 81.6922 40.8253 81.6922 37.876C81.6922 35.4493 82.4949 33.5453 84.1002 32.164C85.7055 30.7827 88.1882 29.8307 91.5482 29.308C88.7109 27.292 85.8735 25.5373 83.0362 24.044C85.2762 21.2067 87.8335 19.06 90.7082 17.604C93.5829 16.1107 97.0735 15.364 101.18 15.364C106.93 15.364 111.186 16.6147 113.948 19.116C116.748 21.58 118.148 25.388 118.148 30.54V37.204ZM102.356 25.22C100.452 25.22 98.7722 25.5373 97.3162 26.172C95.8602 26.8067 94.5535 27.7587 93.3962 29.028C95.6362 28.7667 98.4362 28.636 101.796 28.636C103.178 28.636 104.148 28.468 104.708 28.132C105.268 27.796 105.548 27.3667 105.548 26.844C105.548 26.396 105.268 26.0227 104.708 25.724C104.148 25.388 103.364 25.22 102.356 25.22ZM96.4762 37.652C98.5669 37.652 100.452 37.26 102.132 36.476C103.812 35.6547 104.97 34.5907 105.604 33.284V31.828C104.708 32.276 103.719 32.6307 102.636 32.892C101.554 33.116 100.247 33.34 98.7162 33.564L96.7002 33.9C94.6095 34.3107 93.5642 35.02 93.5642 36.028C93.5642 37.1107 94.5349 37.652 96.4762 37.652ZM134.512 24.212C136.08 18.5747 139.981 15.756 146.216 15.756C147.299 15.756 148.344 15.8307 149.352 15.98L147.56 28.524C144.872 27.516 142.669 27.012 140.952 27.012C138.824 27.012 137.256 27.6467 136.248 28.916C135.24 30.1853 134.736 31.884 134.736 34.012V33.956L134.68 37.652C134.68 40.3027 134.755 43.252 134.904 46.5H121.52C121.819 41.124 121.968 36.0467 121.968 31.268C121.968 26.4893 121.819 21.3747 121.52 15.924C123.984 16.036 125.869 16.092 127.176 16.092C128.557 16.092 130.443 16.036 132.832 15.924L134.512 24.212ZM173.44 46.5C173.664 41.012 173.776 35.9533 173.776 31.324C173.776 29.6813 173.366 28.3747 172.544 27.404C171.76 26.4333 170.752 25.948 169.52 25.948C168.288 25.948 167.243 26.508 166.384 27.628C165.526 28.7107 165.022 30.204 164.872 32.108C164.798 34.9453 164.76 36.9613 164.76 38.156C164.76 40.6947 164.835 43.476 164.984 46.5H151.6C151.899 41.124 152.048 36.0467 152.048 31.268C152.048 26.4893 151.899 21.3747 151.6 15.924C154.064 16.036 155.95 16.092 157.256 16.092C158.638 16.092 160.523 16.036 162.912 15.924L164.536 24.156C165.395 21.1693 166.739 18.9667 168.568 17.548C170.398 16.092 172.526 15.364 174.952 15.364C177.192 15.364 179.134 15.868 180.776 16.876C182.419 17.8467 183.651 19.172 184.472 20.852C185.331 22.532 185.76 24.4173 185.76 26.508V34.572C185.76 39.5373 185.854 43.5133 186.04 46.5H173.44ZM195.802 12.62C193.45 12.62 191.695 12.0413 190.538 10.884C189.418 9.72666 188.858 8.21466 188.858 6.348C188.858 4.51867 189.418 3.00666 190.538 1.812C191.695 0.617331 193.45 0.0199976 195.802 0.0199976C198.042 0.0199976 199.759 0.635997 200.954 1.868C202.148 3.06266 202.746 4.556 202.746 6.348C202.746 8.21466 202.167 9.72666 201.01 10.884C199.852 12.0413 198.116 12.62 195.802 12.62ZM189.306 46.5C189.567 40.4893 189.698 35.524 189.698 31.604C189.698 26.9373 189.548 21.7107 189.25 15.924H202.69C202.391 21.4867 202.242 26.7133 202.242 31.604C202.242 35.7107 202.372 40.676 202.634 46.5H189.306ZM227.367 46.5C227.591 41.012 227.703 35.9533 227.703 31.324C227.703 29.6813 227.292 28.3747 226.471 27.404C225.687 26.4333 224.679 25.948 223.447 25.948C222.215 25.948 221.169 26.508 220.311 27.628C219.452 28.7107 218.948 30.204 218.799 32.108C218.724 34.9453 218.687 36.9613 218.687 38.156C218.687 40.6947 218.761 43.476 218.911 46.5H205.527C205.825 41.124 205.975 36.0467 205.975 31.268C205.975 26.4893 205.825 21.3747 205.527 15.924C207.991 16.036 209.876 16.092 211.183 16.092C212.564 16.092 214.449 16.036 216.839 15.924L218.463 24.156C219.321 21.1693 220.665 18.9667 222.495 17.548C224.324 16.092 226.452 15.364 228.879 15.364C231.119 15.364 233.06 15.868 234.703 16.876C236.345 17.8467 237.577 19.172 238.399 20.852C239.257 22.532 239.687 24.4173 239.687 26.508V34.572C239.687 39.5373 239.78 43.5133 239.967 46.5H227.367ZM268.656 15.924H279.408C279.221 22.0467 279.128 30.7453 279.128 42.02C279.128 46.4627 278.232 50.1027 276.44 52.94C274.685 55.7773 272.352 57.8307 269.44 59.1C266.528 60.4067 263.28 61.06 259.696 61.06C256.149 61.06 252.976 60.5373 250.176 59.492C247.376 58.484 245.248 57.1213 243.792 55.404L246.312 46.836C248.328 47.9933 250.232 48.8147 252.024 49.3C253.816 49.8227 255.683 50.084 257.624 50.084C263.971 50.084 267.144 47.396 267.144 42.02C267.144 41.236 267.163 40.676 267.2 40.34C267.2 40.116 267.2 39.8173 267.2 39.444C267.237 39.0707 267.237 38.5853 267.2 37.988C265.296 43.2893 261.264 45.94 255.104 45.94C252.603 45.94 250.363 45.268 248.384 43.924C246.443 42.58 244.931 40.7693 243.848 38.492C242.765 36.1773 242.224 33.6387 242.224 30.876C242.224 28.0387 242.765 25.444 243.848 23.092C244.931 20.7027 246.443 18.8173 248.384 17.436C250.325 16.0547 252.509 15.364 254.936 15.364C261.245 15.364 265.352 17.5853 267.256 22.028L268.656 15.924ZM260.928 36.98C261.787 36.98 262.683 36.7933 263.616 36.42C264.549 36.0093 265.352 35.3747 266.024 34.516C266.696 33.62 267.032 32.5187 267.032 31.212C267.032 28.8973 266.509 27.2547 265.464 26.284C264.419 25.276 262.869 24.772 260.816 24.772C259.024 24.772 257.605 25.3693 256.56 26.564C255.515 27.7587 254.992 29.308 254.992 31.212C254.992 32.9293 255.552 34.3293 256.672 35.412C257.829 36.4573 259.248 36.98 260.928 36.98ZM326.523 37.204C326.523 38.4733 326.672 39.3693 326.971 39.892C327.27 40.4147 327.867 40.788 328.763 41.012L328.539 46.276C327.344 46.4627 326.299 46.5933 325.403 46.668C324.544 46.7427 323.387 46.78 321.931 46.78C318.72 46.78 316.592 46.0707 315.547 44.652C314.502 43.196 313.979 41.348 313.979 39.108V37.708C312.896 40.7693 311.31 43.0467 309.219 44.54C307.166 46.0333 304.534 46.78 301.323 46.78C297.59 46.78 294.771 46.0333 292.867 44.54C291 43.0467 290.067 40.8253 290.067 37.876C290.067 35.4493 290.87 33.5453 292.475 32.164C294.08 30.7827 296.563 29.8307 299.923 29.308C297.086 27.292 294.248 25.5373 291.411 24.044C293.651 21.2067 296.208 19.06 299.083 17.604C301.958 16.1107 305.448 15.364 309.555 15.364C315.304 15.364 319.56 16.6147 322.323 19.116C325.123 21.58 326.523 25.388 326.523 30.54V37.204ZM310.731 25.22C308.827 25.22 307.147 25.5373 305.691 26.172C304.235 26.8067 302.928 27.7587 301.771 29.028C304.011 28.7667 306.811 28.636 310.171 28.636C311.552 28.636 312.523 28.468 313.083 28.132C313.643 27.796 313.923 27.3667 313.923 26.844C313.923 26.396 313.643 26.0227 313.083 25.724C312.523 25.388 311.739 25.22 310.731 25.22ZM304.851 37.652C306.942 37.652 308.827 37.26 310.507 36.476C312.187 35.6547 313.344 34.5907 313.979 33.284V31.828C313.083 32.276 312.094 32.6307 311.011 32.892C309.928 33.116 308.622 33.34 307.091 33.564L305.075 33.9C302.984 34.3107 301.939 35.02 301.939 36.028C301.939 37.1107 302.91 37.652 304.851 37.652ZM351.735 46.5C351.959 41.012 352.071 35.9533 352.071 31.324C352.071 29.6813 351.66 28.3747 350.839 27.404C350.055 26.4333 349.047 25.948 347.815 25.948C346.583 25.948 345.537 26.508 344.679 27.628C343.82 28.7107 343.316 30.204 343.167 32.108C343.092 34.9453 343.055 36.9613 343.055 38.156C343.055 40.6947 343.129 43.476 343.279 46.5H329.895C330.193 41.124 330.343 36.0467 330.343 31.268C330.343 26.4893 330.193 21.3747 329.895 15.924C332.359 16.036 334.244 16.092 335.551 16.092C336.932 16.092 338.817 16.036 341.207 15.924L342.831 24.156C343.689 21.1693 345.033 18.9667 346.863 17.548C348.692 16.092 350.82 15.364 353.247 15.364C355.487 15.364 357.428 15.868 359.071 16.876C360.713 17.8467 361.945 19.172 362.767 20.852C363.625 22.532 364.055 24.4173 364.055 26.508V34.572C364.055 39.5373 364.148 43.5133 364.335 46.5H351.735ZM403.216 2.932C402.992 9.876 402.88 17.1373 402.88 24.716C402.88 32.22 402.992 39.4813 403.216 46.5H390.56L390.728 39.78C389.646 42.2813 388.078 44.1293 386.024 45.324C383.971 46.4813 381.544 47.06 378.744 47.06C376.318 47.06 374.134 46.3693 372.192 44.988C370.251 43.6067 368.739 41.74 367.656 39.388C366.574 36.9987 366.032 34.3853 366.032 31.548C366.032 28.748 366.574 26.116 367.656 23.652C368.739 21.1507 370.251 19.1533 372.192 17.66C374.171 16.1293 376.411 15.364 378.912 15.364C381.824 15.364 384.307 15.98 386.36 17.212C388.451 18.4067 390 20.2733 391.008 22.812C391.008 20.684 390.934 17.268 390.784 12.564C390.635 8.00933 390.56 4.79866 390.56 2.932H403.216ZM384.624 37.652C386.454 37.652 387.947 37.148 389.104 36.14C390.262 35.0947 390.84 33.452 390.84 31.212C390.84 29.2333 390.262 27.7773 389.104 26.844C387.947 25.9107 386.491 25.444 384.736 25.444C383.056 25.444 381.638 25.9853 380.48 27.068C379.36 28.1133 378.8 29.4947 378.8 31.212C378.8 33.116 379.323 34.6653 380.368 35.86C381.414 37.0547 382.832 37.652 384.624 37.652ZM27.608 92.948C24.1733 92.724 21.0373 92.556 18.2 92.444L18.144 98.38C18.144 100.396 18.5733 101.983 19.432 103.14C20.328 104.26 21.896 104.82 24.136 104.82C24.9947 104.82 25.816 104.745 26.6 104.596C26.4507 105.977 26.376 107.377 26.376 108.796C26.376 109.468 26.4133 110.999 26.488 113.388C24.8453 113.687 23.464 113.873 22.344 113.948C21.224 114.023 19.768 114.06 17.976 114.06C13.608 114.06 10.5093 113.015 8.68 110.924C6.888 108.796 5.992 105.847 5.992 102.076L6.048 92.612C4.29333 92.6867 2.464 92.7987 0.56 92.948V83.036C2.50133 83.036 4.144 82.42 5.488 81.188C6.832 79.956 7.63467 78.4813 7.896 76.764H23.128C21.224 79.3773 19.1147 81.468 16.8 83.036H27.608V92.948ZM58.3349 99.5H40.0789C40.3776 101.143 41.1056 102.487 42.2629 103.532C43.4576 104.54 45.1376 105.044 47.3029 105.044C48.8709 105.044 50.3456 104.745 51.7269 104.148C53.1083 103.513 54.2096 102.636 55.0309 101.516C57.5323 102.748 60.8549 104.073 64.9989 105.492C63.8416 108.105 61.7323 110.196 58.6709 111.764C55.6469 113.295 51.6896 114.06 46.7989 114.06C40.4523 114.06 35.7483 112.604 32.6869 109.692C29.6629 106.743 28.1509 102.879 28.1509 98.1C28.1509 93.4333 29.6629 89.644 32.6869 86.732C35.7109 83.82 40.4149 82.364 46.7989 82.364C50.6069 82.364 53.9109 82.9987 56.7109 84.268C59.5109 85.5373 61.6576 87.3107 63.1509 89.588C64.6443 91.828 65.3909 94.404 65.3909 97.316C65.3909 98.2867 65.3536 99.0147 65.2789 99.5H58.3349ZM47.5829 90.82C45.7163 90.82 44.1856 91.1747 42.9909 91.884C41.7963 92.5933 40.9563 93.564 40.4709 94.796H53.6869C53.2389 93.6013 52.5109 92.6493 51.5029 91.94C50.4949 91.1933 49.1883 90.82 47.5829 90.82ZM102.945 104.204C102.945 105.473 103.094 106.369 103.393 106.892C103.692 107.415 104.289 107.788 105.185 108.012L104.961 113.276C103.766 113.463 102.721 113.593 101.825 113.668C100.966 113.743 99.8091 113.78 98.3531 113.78C95.1424 113.78 93.0144 113.071 91.9691 111.652C90.9237 110.196 90.4011 108.348 90.4011 106.108V104.708C89.3184 107.769 87.7317 110.047 85.6411 111.54C83.5877 113.033 80.9557 113.78 77.7451 113.78C74.0117 113.78 71.1931 113.033 69.2891 111.54C67.4224 110.047 66.4891 107.825 66.4891 104.876C66.4891 102.449 67.2917 100.545 68.8971 99.164C70.5024 97.7827 72.9851 96.8307 76.3451 96.308C73.5077 94.292 70.6704 92.5373 67.8331 91.044C70.0731 88.2067 72.6304 86.06 75.5051 84.604C78.3797 83.1107 81.8704 82.364 85.9771 82.364C91.7264 82.364 95.9824 83.6147 98.7451 86.116C101.545 88.58 102.945 92.388 102.945 97.54V104.204ZM87.1531 92.22C85.2491 92.22 83.5691 92.5373 82.1131 93.172C80.6571 93.8067 79.3504 94.7587 78.1931 96.028C80.4331 95.7667 83.2331 95.636 86.5931 95.636C87.9744 95.636 88.9451 95.468 89.5051 95.132C90.0651 94.796 90.3451 94.3667 90.3451 93.844C90.3451 93.396 90.0651 93.0227 89.5051 92.724C88.9451 92.388 88.1611 92.22 87.1531 92.22ZM81.2731 104.652C83.3637 104.652 85.2491 104.26 86.9291 103.476C88.6091 102.655 89.7664 101.591 90.4011 100.284V98.828C89.5051 99.276 88.5157 99.6307 87.4331 99.892C86.3504 100.116 85.0437 100.34 83.5131 100.564L81.4971 100.9C79.4064 101.311 78.3611 102.02 78.3611 103.028C78.3611 104.111 79.3317 104.652 81.2731 104.652ZM117.685 98.212C117.76 100.116 118.357 101.647 119.477 102.804C120.634 103.961 122.333 104.54 124.573 104.54C125.805 104.54 126.906 104.316 127.877 103.868C128.848 103.383 129.744 102.673 130.565 101.74C133.738 102.972 137.453 104.036 141.709 104.932C140.477 107.807 138.386 110.047 135.437 111.652C132.525 113.257 128.736 114.06 124.069 114.06C117.834 114.06 113.224 112.604 110.237 109.692C107.25 106.78 105.757 102.953 105.757 98.212C105.757 93.4707 107.25 89.644 110.237 86.732C113.224 83.82 117.834 82.364 124.069 82.364C128.736 82.364 132.525 83.1667 135.437 84.772C138.386 86.3773 140.477 88.6173 141.709 91.492C138.386 92.2013 134.672 93.2653 130.565 94.684C129.744 93.7507 128.848 93.06 127.877 92.612C126.906 92.1267 125.805 91.884 124.573 91.884C122.333 91.884 120.634 92.4627 119.477 93.62C118.357 94.7773 117.76 96.308 117.685 98.212ZM165.511 113.5C165.735 108.012 165.847 102.953 165.847 98.324C165.847 96.6813 165.436 95.3747 164.615 94.404C163.831 93.4333 162.823 92.948 161.591 92.948C160.284 92.948 159.164 93.5827 158.231 94.852C157.335 96.1213 156.887 97.8573 156.887 100.06L156.831 99.948C156.831 106.033 156.905 110.551 157.055 113.5H143.671C143.969 108.124 144.119 100.844 144.119 91.66C144.119 82.476 143.969 75.196 143.671 69.82H156.999L157.055 87.068L156.999 90.036C157.895 87.4227 159.22 85.5 160.975 84.268C162.767 82.9987 164.783 82.364 167.023 82.364C169.263 82.364 171.204 82.868 172.847 83.876C174.489 84.8467 175.721 86.172 176.543 87.852C177.401 89.532 177.831 91.4173 177.831 93.508V101.572C177.831 106.537 177.924 110.513 178.111 113.5H165.511ZM187.872 79.62C185.52 79.62 183.765 79.0413 182.608 77.884C181.488 76.7267 180.928 75.2147 180.928 73.348C180.928 71.5187 181.488 70.0067 182.608 68.812C183.765 67.6173 185.52 67.02 187.872 67.02C190.112 67.02 191.829 67.636 193.024 68.868C194.219 70.0627 194.816 71.556 194.816 73.348C194.816 75.2147 194.237 76.7267 193.08 77.884C191.923 79.0413 190.187 79.62 187.872 79.62ZM181.376 113.5C181.637 107.489 181.768 102.524 181.768 98.604C181.768 93.9373 181.619 88.7107 181.32 82.924H194.76C194.461 88.4867 194.312 93.7133 194.312 98.604C194.312 102.711 194.443 107.676 194.704 113.5H181.376ZM219.437 113.5C219.661 108.012 219.773 102.953 219.773 98.324C219.773 96.6813 219.362 95.3747 218.541 94.404C217.757 93.4333 216.749 92.948 215.517 92.948C214.285 92.948 213.24 93.508 212.381 94.628C211.522 95.7107 211.018 97.204 210.869 99.108C210.794 101.945 210.757 103.961 210.757 105.156C210.757 107.695 210.832 110.476 210.981 113.5H197.597C197.896 108.124 198.045 103.047 198.045 98.268C198.045 93.4893 197.896 88.3747 197.597 82.924C200.061 83.036 201.946 83.092 203.253 83.092C204.634 83.092 206.52 83.036 208.909 82.924L210.533 91.156C211.392 88.1693 212.736 85.9667 214.565 84.548C216.394 83.092 218.522 82.364 220.949 82.364C223.189 82.364 225.13 82.868 226.773 83.876C228.416 84.8467 229.648 86.172 230.469 87.852C231.328 89.532 231.757 91.4173 231.757 93.508V101.572C231.757 106.537 231.85 110.513 232.037 113.5H219.437ZM260.726 82.924H271.478C271.292 89.0467 271.198 97.7453 271.198 109.02C271.198 113.463 270.302 117.103 268.51 119.94C266.756 122.777 264.422 124.831 261.51 126.1C258.598 127.407 255.35 128.06 251.766 128.06C248.22 128.06 245.046 127.537 242.246 126.492C239.446 125.484 237.318 124.121 235.862 122.404L238.382 113.836C240.398 114.993 242.302 115.815 244.094 116.3C245.886 116.823 247.753 117.084 249.694 117.084C256.041 117.084 259.214 114.396 259.214 109.02C259.214 108.236 259.233 107.676 259.27 107.34C259.27 107.116 259.27 106.817 259.27 106.444C259.308 106.071 259.308 105.585 259.27 104.988C257.366 110.289 253.334 112.94 247.174 112.94C244.673 112.94 242.433 112.268 240.454 110.924C238.513 109.58 237.001 107.769 235.918 105.492C234.836 103.177 234.294 100.639 234.294 97.876C234.294 95.0387 234.836 92.444 235.918 90.092C237.001 87.7027 238.513 85.8173 240.454 84.436C242.396 83.0547 244.58 82.364 247.006 82.364C253.316 82.364 257.422 84.5853 259.326 89.028L260.726 82.924ZM252.998 103.98C253.857 103.98 254.753 103.793 255.686 103.42C256.62 103.009 257.422 102.375 258.094 101.516C258.766 100.62 259.102 99.5187 259.102 98.212C259.102 95.8973 258.58 94.2547 257.534 93.284C256.489 92.276 254.94 91.772 252.886 91.772C251.094 91.772 249.676 92.3693 248.63 93.564C247.585 94.7587 247.062 96.308 247.062 98.212C247.062 99.9293 247.622 101.329 248.742 102.412C249.9 103.457 251.318 103.98 252.998 103.98ZM300.729 114.06C294.345 114.06 289.641 112.604 286.617 109.692C283.631 106.743 282.137 102.879 282.137 98.1C282.137 93.4333 283.631 89.644 286.617 86.732C289.641 83.82 294.345 82.364 300.729 82.364C305.023 82.364 308.607 83.0733 311.481 84.492C314.393 85.8733 316.54 87.7587 317.921 90.148C319.303 92.5 319.993 95.1507 319.993 98.1C319.993 102.916 318.388 106.78 315.177 109.692C312.004 112.604 307.188 114.06 300.729 114.06ZM300.953 104.54C303.38 104.54 305.191 103.961 306.385 102.804C307.58 101.647 308.177 100.097 308.177 98.156C308.177 96.3267 307.58 94.8333 306.385 93.676C305.191 92.4813 303.38 91.884 300.953 91.884C298.527 91.884 296.753 92.4627 295.633 93.62C294.513 94.7773 293.953 96.2893 293.953 98.156C293.953 100.097 294.513 101.647 295.633 102.804C296.753 103.961 298.527 104.54 300.953 104.54ZM343.532 113.5C343.756 108.012 343.868 102.953 343.868 98.324C343.868 96.6813 343.457 95.3747 342.636 94.404C341.852 93.4333 340.844 92.948 339.612 92.948C338.38 92.948 337.334 93.508 336.476 94.628C335.617 95.7107 335.113 97.204 334.964 99.108C334.889 101.945 334.852 103.961 334.852 105.156C334.852 107.695 334.926 110.476 335.076 113.5H321.692C321.99 108.124 322.14 103.047 322.14 98.268C322.14 93.4893 321.99 88.3747 321.692 82.924C324.156 83.036 326.041 83.092 327.348 83.092C328.729 83.092 330.614 83.036 333.004 82.924L334.628 91.156C335.486 88.1693 336.83 85.9667 338.66 84.548C340.489 83.092 342.617 82.364 345.044 82.364C347.284 82.364 349.225 82.868 350.868 83.876C352.51 84.8467 353.742 86.172 354.564 87.852C355.422 89.532 355.852 91.4173 355.852 93.508V101.572C355.852 106.537 355.945 110.513 356.132 113.5H343.532ZM371.549 91.1C371.512 93.34 371.493 96.7747 371.493 101.404C371.493 106.967 371.53 110.999 371.605 113.5H358.389L358.445 107.172C358.52 100.228 358.557 94.8707 358.557 91.1C358.557 87.516 358.52 82.4387 358.445 75.868L358.389 69.82H371.605C371.53 75.1213 371.493 79.452 371.493 82.812C371.493 86.5453 371.512 89.308 371.549 91.1ZM381.372 79.62C379.02 79.62 377.265 79.0413 376.108 77.884C374.988 76.7267 374.428 75.2147 374.428 73.348C374.428 71.5187 374.988 70.0067 376.108 68.812C377.265 67.6173 379.02 67.02 381.372 67.02C383.612 67.02 385.329 67.636 386.524 68.868C387.718 70.0627 388.316 71.556 388.316 73.348C388.316 75.2147 387.737 76.7267 386.58 77.884C385.422 79.0413 383.686 79.62 381.372 79.62ZM374.876 113.5C375.137 107.489 375.268 102.524 375.268 98.604C375.268 93.9373 375.118 88.7107 374.82 82.924H388.26C387.961 88.4867 387.812 93.7133 387.812 98.604C387.812 102.711 387.942 107.676 388.204 113.5H374.876ZM412.937 113.5C413.161 108.012 413.273 102.953 413.273 98.324C413.273 96.6813 412.862 95.3747 412.041 94.404C411.257 93.4333 410.249 92.948 409.017 92.948C407.785 92.948 406.739 93.508 405.881 94.628C405.022 95.7107 404.518 97.204 404.369 99.108C404.294 101.945 404.257 103.961 404.257 105.156C404.257 107.695 404.331 110.476 404.481 113.5H391.097C391.395 108.124 391.545 103.047 391.545 98.268C391.545 93.4893 391.395 88.3747 391.097 82.924C393.561 83.036 395.446 83.092 396.753 83.092C398.134 83.092 400.019 83.036 402.409 82.924L404.033 91.156C404.891 88.1693 406.235 85.9667 408.065 84.548C409.894 83.092 412.022 82.364 414.449 82.364C416.689 82.364 418.63 82.868 420.273 83.876C421.915 84.8467 423.147 86.172 423.969 87.852C424.827 89.532 425.257 91.4173 425.257 93.508V101.572C425.257 106.537 425.35 110.513 425.537 113.5H412.937ZM457.418 99.5H439.162C439.461 101.143 440.189 102.487 441.346 103.532C442.541 104.54 444.221 105.044 446.386 105.044C447.954 105.044 449.429 104.745 450.81 104.148C452.191 103.513 453.293 102.636 454.114 101.516C456.615 102.748 459.938 104.073 464.082 105.492C462.925 108.105 460.815 110.196 457.754 111.764C454.73 113.295 450.773 114.06 445.882 114.06C439.535 114.06 434.831 112.604 431.77 109.692C428.746 106.743 427.234 102.879 427.234 98.1C427.234 93.4333 428.746 89.644 431.77 86.732C434.794 83.82 439.498 82.364 445.882 82.364C449.69 82.364 452.994 82.9987 455.794 84.268C458.594 85.5373 460.741 87.3107 462.234 89.588C463.727 91.828 464.474 94.404 464.474 97.316C464.474 98.2867 464.437 99.0147 464.362 99.5H457.418ZM446.666 90.82C444.799 90.82 443.269 91.1747 442.074 91.884C440.879 92.5933 440.039 93.564 439.554 94.796H452.77C452.322 93.6013 451.594 92.6493 450.586 91.94C449.578 91.1933 448.271 90.82 446.666 90.82ZM471.508 102.132C473.188 102.132 474.588 102.785 475.708 104.092C476.866 105.361 477.444 107.135 477.444 109.412C477.444 111.279 477.108 113.239 476.436 115.292C475.802 117.345 474.906 119.007 473.748 120.276H468.988C470.556 118.148 471.546 116.057 471.956 114.004C470.015 114.004 468.466 113.425 467.308 112.268C466.151 111.111 465.572 109.711 465.572 108.068C465.572 106.425 466.151 105.025 467.308 103.868C468.466 102.711 469.866 102.132 471.508 102.132ZM45.64 180.5C45.9387 175.609 46.088 170.551 46.088 165.324C46.088 163.644 45.6587 162.337 44.8 161.404C43.9787 160.433 42.8773 159.948 41.496 159.948C40.2267 159.948 39.1253 160.508 38.192 161.628C37.296 162.748 36.848 164.372 36.848 166.5V166.444C36.848 173.052 36.9413 177.737 37.128 180.5H24.528C24.752 175.012 24.864 169.953 24.864 165.324C24.864 163.681 24.4533 162.375 23.632 161.404C22.848 160.433 21.84 159.948 20.608 159.948C19.3013 159.948 18.2 160.508 17.304 161.628C16.4453 162.711 15.9413 164.204 15.792 166.108C15.7173 168.945 15.68 170.961 15.68 172.156C15.68 174.695 15.7547 177.476 15.904 180.5H2.52C2.81867 175.124 2.968 170.047 2.968 165.268C2.968 160.489 2.81867 155.375 2.52 149.924C4.984 150.036 6.86933 150.092 8.176 150.092C9.55733 150.092 11.4427 150.036 13.832 149.924L15.512 158.212C16.3707 155.188 17.7333 152.967 19.6 151.548C21.4667 150.092 23.6133 149.364 26.04 149.364C28.952 149.364 31.3227 150.167 33.152 151.772C35.0187 153.377 36.176 155.468 36.624 158.044C37.4827 155.393 38.92 153.284 40.936 151.716C42.952 150.148 45.248 149.364 47.824 149.364C51.184 149.364 53.816 150.503 55.72 152.78C57.624 155.02 58.576 158.1 58.576 162.02V171.316C58.576 175.535 58.6133 178.596 58.688 180.5H45.64ZM97.3648 171.204C97.3648 172.473 97.5141 173.369 97.8127 173.892C98.1114 174.415 98.7087 174.788 99.6047 175.012L99.3807 180.276C98.1861 180.463 97.1408 180.593 96.2447 180.668C95.3861 180.743 94.2287 180.78 92.7728 180.78C89.5621 180.78 87.4341 180.071 86.3887 178.652C85.3434 177.196 84.8207 175.348 84.8207 173.108V171.708C83.7381 174.769 82.1514 177.047 80.0607 178.54C78.0074 180.033 75.3754 180.78 72.1647 180.78C68.4314 180.78 65.6127 180.033 63.7087 178.54C61.8421 177.047 60.9087 174.825 60.9087 171.876C60.9087 169.449 61.7114 167.545 63.3167 166.164C64.9221 164.783 67.4047 163.831 70.7647 163.308C67.9274 161.292 65.0901 159.537 62.2527 158.044C64.4927 155.207 67.0501 153.06 69.9247 151.604C72.7994 150.111 76.2901 149.364 80.3967 149.364C86.1461 149.364 90.4021 150.615 93.1647 153.116C95.9648 155.58 97.3648 159.388 97.3648 164.54V171.204ZM81.5727 159.22C79.6687 159.22 77.9887 159.537 76.5327 160.172C75.0767 160.807 73.7701 161.759 72.6127 163.028C74.8527 162.767 77.6527 162.636 81.0127 162.636C82.3941 162.636 83.3647 162.468 83.9247 162.132C84.4847 161.796 84.7648 161.367 84.7648 160.844C84.7648 160.396 84.4847 160.023 83.9247 159.724C83.3647 159.388 82.5807 159.22 81.5727 159.22ZM75.6927 171.652C77.7834 171.652 79.6687 171.26 81.3487 170.476C83.0287 169.655 84.1861 168.591 84.8207 167.284V165.828C83.9247 166.276 82.9354 166.631 81.8527 166.892C80.7701 167.116 79.4634 167.34 77.9327 167.564L75.9167 167.9C73.8261 168.311 72.7807 169.02 72.7807 170.028C72.7807 171.111 73.7514 171.652 75.6927 171.652ZM137.361 136.932C137.137 143.876 137.025 151.137 137.025 158.716C137.025 166.22 137.137 173.481 137.361 180.5H124.705L124.873 173.78C123.79 176.281 122.222 178.129 120.169 179.324C118.115 180.481 115.689 181.06 112.889 181.06C110.462 181.06 108.278 180.369 106.337 178.988C104.395 177.607 102.883 175.74 101.801 173.388C100.718 170.999 100.177 168.385 100.177 165.548C100.177 162.748 100.718 160.116 101.801 157.652C102.883 155.151 104.395 153.153 106.337 151.66C108.315 150.129 110.555 149.364 113.057 149.364C115.969 149.364 118.451 149.98 120.505 151.212C122.595 152.407 124.145 154.273 125.153 156.812C125.153 154.684 125.078 151.268 124.929 146.564C124.779 142.009 124.705 138.799 124.705 136.932H137.361ZM118.769 171.652C120.598 171.652 122.091 171.148 123.249 170.14C124.406 169.095 124.985 167.452 124.985 165.212C124.985 163.233 124.406 161.777 123.249 160.844C122.091 159.911 120.635 159.444 118.881 159.444C117.201 159.444 115.782 159.985 114.625 161.068C113.505 162.113 112.945 163.495 112.945 165.212C112.945 167.116 113.467 168.665 114.513 169.86C115.558 171.055 116.977 171.652 118.769 171.652ZM169.246 166.5H150.99C151.288 168.143 152.016 169.487 153.174 170.532C154.368 171.54 156.048 172.044 158.214 172.044C159.782 172.044 161.256 171.745 162.638 171.148C164.019 170.513 165.12 169.636 165.942 168.516C168.443 169.748 171.766 171.073 175.91 172.492C174.752 175.105 172.643 177.196 169.582 178.764C166.558 180.295 162.6 181.06 157.71 181.06C151.363 181.06 146.659 179.604 143.598 176.692C140.574 173.743 139.062 169.879 139.062 165.1C139.062 160.433 140.574 156.644 143.598 153.732C146.622 150.82 151.326 149.364 157.71 149.364C161.518 149.364 164.822 149.999 167.622 151.268C170.422 152.537 172.568 154.311 174.062 156.588C175.555 158.828 176.302 161.404 176.302 164.316C176.302 165.287 176.264 166.015 176.19 166.5H169.246ZM158.494 157.82C156.627 157.82 155.096 158.175 153.902 158.884C152.707 159.593 151.867 160.564 151.382 161.796H164.598C164.15 160.601 163.422 159.649 162.414 158.94C161.406 158.193 160.099 157.82 158.494 157.82ZM216.555 166.5H198.299C198.597 168.143 199.325 169.487 200.483 170.532C201.677 171.54 203.357 172.044 205.523 172.044C207.091 172.044 208.565 171.745 209.947 171.148C211.328 170.513 212.429 169.636 213.251 168.516C215.752 169.748 219.075 171.073 223.219 172.492C222.061 175.105 219.952 177.196 216.891 178.764C213.867 180.295 209.909 181.06 205.019 181.06C198.672 181.06 193.968 179.604 190.907 176.692C187.883 173.743 186.371 169.879 186.371 165.1C186.371 160.433 187.883 156.644 190.907 153.732C193.931 150.82 198.635 149.364 205.019 149.364C208.827 149.364 212.131 149.999 214.931 151.268C217.731 152.537 219.877 154.311 221.371 156.588C222.864 158.828 223.611 161.404 223.611 164.316C223.611 165.287 223.573 166.015 223.499 166.5H216.555ZM205.803 157.82C203.936 157.82 202.405 158.175 201.211 158.884C200.016 159.593 199.176 160.564 198.691 161.796H211.907C211.459 160.601 210.731 159.649 209.723 158.94C208.715 158.193 207.408 157.82 205.803 157.82ZM261.165 171.204C261.165 172.473 261.314 173.369 261.613 173.892C261.911 174.415 262.509 174.788 263.405 175.012L263.181 180.276C261.986 180.463 260.941 180.593 260.045 180.668C259.186 180.743 258.029 180.78 256.573 180.78C253.362 180.78 251.234 180.071 250.189 178.652C249.143 177.196 248.621 175.348 248.621 173.108V171.708C247.538 174.769 245.951 177.047 243.861 178.54C241.807 180.033 239.175 180.78 235.965 180.78C232.231 180.78 229.413 180.033 227.509 178.54C225.642 177.047 224.709 174.825 224.709 171.876C224.709 169.449 225.511 167.545 227.117 166.164C228.722 164.783 231.205 163.831 234.565 163.308C231.727 161.292 228.89 159.537 226.053 158.044C228.293 155.207 230.85 153.06 233.725 151.604C236.599 150.111 240.09 149.364 244.197 149.364C249.946 149.364 254.202 150.615 256.965 153.116C259.765 155.58 261.165 159.388 261.165 164.54V171.204ZM245.373 159.22C243.469 159.22 241.789 159.537 240.333 160.172C238.877 160.807 237.57 161.759 236.413 163.028C238.653 162.767 241.453 162.636 244.813 162.636C246.194 162.636 247.165 162.468 247.725 162.132C248.285 161.796 248.565 161.367 248.565 160.844C248.565 160.396 248.285 160.023 247.725 159.724C247.165 159.388 246.381 159.22 245.373 159.22ZM239.493 171.652C241.583 171.652 243.469 171.26 245.149 170.476C246.829 169.655 247.986 168.591 248.621 167.284V165.828C247.725 166.276 246.735 166.631 245.653 166.892C244.57 167.116 243.263 167.34 241.733 167.564L239.717 167.9C237.626 168.311 236.581 169.02 236.581 170.028C236.581 171.111 237.551 171.652 239.493 171.652ZM282.625 181.06C279.489 181.06 276.297 180.631 273.049 179.772C269.838 178.876 266.814 177.532 263.977 175.74L269.857 167.732C271.574 168.964 273.646 169.935 276.073 170.644C278.499 171.316 280.59 171.652 282.345 171.652C284.025 171.652 285.313 171.428 286.209 170.98C287.142 170.495 287.609 169.879 287.609 169.132C287.609 168.535 287.385 168.068 286.937 167.732C286.489 167.396 285.873 167.228 285.089 167.228C284.603 167.228 284.043 167.247 283.409 167.284C282.811 167.321 282.326 167.359 281.953 167.396C280.011 167.62 278.014 167.732 275.961 167.732C272.638 167.732 269.931 167.116 267.841 165.884C265.787 164.615 264.761 162.561 264.761 159.724C264.761 156.439 266.31 153.9 269.409 152.108C272.507 150.279 277.062 149.364 283.073 149.364C286.022 149.364 288.99 149.793 291.977 150.652C295.001 151.473 297.67 152.724 299.985 154.404L293.545 160.9C291.417 159.78 289.419 158.996 287.553 158.548C285.723 158.063 283.875 157.82 282.009 157.82C280.702 157.82 279.582 158.081 278.649 158.604C277.715 159.127 277.249 159.724 277.249 160.396C277.249 160.919 277.435 161.329 277.809 161.628C278.219 161.927 278.742 162.076 279.377 162.076C280.011 162.076 280.889 162.02 282.009 161.908C284.734 161.721 286.769 161.628 288.113 161.628C291.995 161.628 295.001 162.281 297.129 163.588C299.257 164.895 300.321 166.892 300.321 169.58C300.321 173.612 298.753 176.543 295.617 178.372C292.481 180.164 288.15 181.06 282.625 181.06ZM338.848 149.924L337.56 153.172C334.013 162.617 330.298 171.727 326.416 180.5C324.4 184.98 321.488 188.564 317.68 191.252C313.872 193.977 309.093 195.284 303.344 195.172C302.634 192.073 302.037 189.647 301.552 187.892C301.104 186.175 300.506 184.439 299.76 182.684C301.813 183.169 303.736 183.412 305.528 183.412C308.44 183.412 310.754 182.796 312.472 181.564C311.128 177.569 309.541 173.276 307.712 168.684C305.882 164.092 303.232 157.839 299.76 149.924H313.032C313.48 151.791 314.096 153.956 314.88 156.42C315.664 158.884 316.448 161.255 317.232 163.532C317.456 164.241 317.81 165.324 318.296 166.78C318.818 168.199 319.229 169.393 319.528 170.364L320.984 165.94C323.784 157.839 325.445 152.5 325.968 149.924H338.848ZM344.237 181.06C342.595 181.06 341.195 180.481 340.037 179.324C338.88 178.129 338.301 176.711 338.301 175.068C338.301 173.425 338.88 172.025 340.037 170.868C341.195 169.711 342.595 169.132 344.237 169.132C345.843 169.132 347.224 169.729 348.381 170.924C349.576 172.081 350.173 173.463 350.173 175.068C350.173 176.711 349.576 178.129 348.381 179.324C347.224 180.481 345.843 181.06 344.237 181.06Z" fill="black"/>
</svg>
