<svg width="402" height="147" viewBox="0 0 402 147" fill="none" xmlns="http://www.w3.org/2000/svg">
<path d="M35.5276 24.896L38.0236 3.152H49.7356L43.3036 38H28.5676L25.3036 18.56L21.5116 38H7.39961L0.967608 3.152H12.6796L15.1276 24.608L18.9676 3.152H31.7836L35.5276 24.896ZM80.9562 30.032C80.9562 31.12 81.0842 31.888 81.3402 32.336C81.5962 32.784 82.1082 33.104 82.8762 33.296L82.6842 37.808C81.6602 37.968 80.7642 38.08 79.9962 38.144C79.2602 38.208 78.2682 38.24 77.0202 38.24C74.2682 38.24 72.4442 37.632 71.5482 36.416C70.6522 35.168 70.2042 33.584 70.2042 31.664V30.464C69.2762 33.088 67.9162 35.04 66.1242 36.32C64.3642 37.6 62.1082 38.24 59.3562 38.24C56.1562 38.24 53.7402 37.6 52.1082 36.32C50.5082 35.04 49.7082 33.136 49.7082 30.608C49.7082 28.528 50.3962 26.896 51.7722 25.712C53.1482 24.528 55.2762 23.712 58.1562 23.264C55.7242 21.536 53.2922 20.032 50.8602 18.752C52.7802 16.32 54.9722 14.48 57.4362 13.232C59.9002 11.952 62.8922 11.312 66.4122 11.312C71.3402 11.312 74.9882 12.384 77.3562 14.528C79.7562 16.64 80.9562 19.904 80.9562 24.32V30.032ZM67.4202 19.76C65.7882 19.76 64.3482 20.032 63.1002 20.576C61.8522 21.12 60.7322 21.936 59.7402 23.024C61.6602 22.8 64.0602 22.688 66.9402 22.688C68.1242 22.688 68.9562 22.544 69.4362 22.256C69.9162 21.968 70.1562 21.6 70.1562 21.152C70.1562 20.768 69.9162 20.448 69.4362 20.192C68.9562 19.904 68.2842 19.76 67.4202 19.76ZM62.3802 30.416C64.1722 30.416 65.7882 30.08 67.2282 29.408C68.6682 28.704 69.6602 27.792 70.2042 26.672V25.424C69.4362 25.808 68.5882 26.112 67.6602 26.336C66.7322 26.528 65.6122 26.72 64.3002 26.912L62.5722 27.2C60.7802 27.552 59.8842 28.16 59.8842 29.024C59.8842 29.952 60.7162 30.416 62.3802 30.416ZM105.59 20.384C102.646 20.192 99.9584 20.048 97.5264 19.952L97.4784 25.04C97.4784 26.768 97.8464 28.128 98.5824 29.12C99.3504 30.08 100.694 30.56 102.614 30.56C103.35 30.56 104.054 30.496 104.726 30.368C104.598 31.552 104.534 32.752 104.534 33.968C104.534 34.544 104.566 35.856 104.63 37.904C103.222 38.16 102.038 38.32 101.078 38.384C100.118 38.448 98.8704 38.48 97.3344 38.48C93.5904 38.48 90.9344 37.584 89.3664 35.792C87.8304 33.968 87.0624 31.44 87.0624 28.208L87.1104 20.096C85.6064 20.16 84.0384 20.256 82.4064 20.384V11.888C84.0704 11.888 85.4784 11.36 86.6304 10.304C87.7824 9.248 88.4704 7.984 88.6944 6.512H101.75C100.118 8.752 98.3104 10.544 96.3264 11.888H105.59V20.384ZM116.28 24.896C116.344 26.528 116.856 27.84 117.816 28.832C118.808 29.824 120.264 30.32 122.184 30.32C123.24 30.32 124.184 30.128 125.016 29.744C125.848 29.328 126.616 28.72 127.32 27.92C130.04 28.976 133.224 29.888 136.872 30.656C135.816 33.12 134.024 35.04 131.496 36.416C129 37.792 125.752 38.48 121.752 38.48C116.408 38.48 112.456 37.232 109.896 34.736C107.336 32.24 106.056 28.96 106.056 24.896C106.056 20.832 107.336 17.552 109.896 15.056C112.456 12.56 116.408 11.312 121.752 11.312C125.752 11.312 129 12 131.496 13.376C134.024 14.752 135.816 16.672 136.872 19.136C134.024 19.744 130.84 20.656 127.32 21.872C126.616 21.072 125.848 20.48 125.016 20.096C124.184 19.68 123.24 19.472 122.184 19.472C120.264 19.472 118.808 19.968 117.816 20.96C116.856 21.952 116.344 23.264 116.28 24.896ZM157.273 38C157.465 33.296 157.561 28.96 157.561 24.992C157.561 23.584 157.209 22.464 156.505 21.632C155.833 20.8 154.969 20.384 153.913 20.384C152.793 20.384 151.833 20.928 151.033 22.016C150.265 23.104 149.881 24.592 149.881 26.48L149.833 26.384C149.833 31.6 149.897 35.472 150.025 38H138.553C138.809 33.392 138.937 27.152 138.937 19.28C138.937 11.408 138.809 5.168 138.553 0.559999H149.977L150.025 15.344L149.977 17.888C150.745 15.648 151.881 14 153.385 12.944C154.921 11.856 156.649 11.312 158.569 11.312C160.489 11.312 162.153 11.744 163.561 12.608C164.969 13.44 166.025 14.576 166.729 16.016C167.465 17.456 167.833 19.072 167.833 20.864V27.776C167.833 32.032 167.913 35.44 168.073 38H157.273ZM209.282 11.792L208.178 14.576C205.138 22.672 201.954 30.48 198.626 38C196.898 41.84 194.402 44.912 191.138 47.216C187.874 49.552 183.778 50.672 178.85 50.576C178.242 47.92 177.73 45.84 177.314 44.336C176.93 42.864 176.418 41.376 175.778 39.872C177.538 40.288 179.186 40.496 180.722 40.496C183.218 40.496 185.202 39.968 186.674 38.912C185.522 35.488 184.162 31.808 182.594 27.872C181.026 23.936 178.754 18.576 175.778 11.792H187.154C187.538 13.392 188.066 15.248 188.738 17.36C189.41 19.472 190.082 21.504 190.754 23.456C190.946 24.064 191.25 24.992 191.666 26.24C192.114 27.456 192.466 28.48 192.722 29.312L193.97 25.52C196.37 18.576 197.794 14 198.242 11.792H209.282ZM222.359 38.48C216.887 38.48 212.855 37.232 210.263 34.736C207.703 32.208 206.423 28.896 206.423 24.8C206.423 20.8 207.703 17.552 210.263 15.056C212.855 12.56 216.887 11.312 222.359 11.312C226.039 11.312 229.111 11.92 231.575 13.136C234.071 14.32 235.911 15.936 237.095 17.984C238.279 20 238.871 22.272 238.871 24.8C238.871 28.928 237.495 32.24 234.743 34.736C232.023 37.232 227.895 38.48 222.359 38.48ZM222.551 30.32C224.631 30.32 226.183 29.824 227.207 28.832C228.231 27.84 228.743 26.512 228.743 24.848C228.743 23.28 228.231 22 227.207 21.008C226.183 19.984 224.631 19.472 222.551 19.472C220.471 19.472 218.951 19.968 217.991 20.96C217.031 21.952 216.551 23.248 216.551 24.848C216.551 26.512 217.031 27.84 217.991 28.832C218.951 29.824 220.471 30.32 222.551 30.32ZM269.846 11.792C269.622 15.824 269.51 20.176 269.51 24.848C269.51 29.552 269.622 33.936 269.846 38C267.798 37.904 266.182 37.856 264.998 37.856C263.878 37.856 262.262 37.904 260.15 38L258.758 30.944C258.022 33.504 256.87 35.408 255.302 36.656C253.734 37.872 251.91 38.48 249.83 38.48C247.91 38.48 246.246 38.064 244.838 37.232C243.43 36.368 242.358 35.216 241.622 33.776C240.918 32.336 240.566 30.72 240.566 28.928V22.016C240.566 17.76 240.486 14.352 240.326 11.792H251.126C250.934 16.496 250.838 21.152 250.838 25.76C250.838 27.168 251.174 28.288 251.846 29.12C252.55 29.952 253.43 30.368 254.486 30.368C255.478 30.368 256.342 29.936 257.078 29.072C257.846 28.176 258.31 26.96 258.47 25.424V24.32C258.534 21.824 258.566 20.096 258.566 19.136C258.566 16.928 258.502 14.48 258.374 11.792H269.846ZM282.917 18.896C284.261 14.064 287.605 11.648 292.949 11.648C293.877 11.648 294.773 11.712 295.637 11.84L294.101 22.592C291.797 21.728 289.909 21.296 288.437 21.296C286.613 21.296 285.269 21.84 284.405 22.928C283.541 24.016 283.109 25.472 283.109 27.296V27.248L283.061 30.416C283.061 32.688 283.125 35.216 283.253 38H271.781C272.037 33.392 272.165 29.04 272.165 24.944C272.165 20.848 272.037 16.464 271.781 11.792C273.893 11.888 275.509 11.936 276.629 11.936C277.813 11.936 279.429 11.888 281.477 11.792L282.917 18.896ZM21.9436 59.312C24.0236 59.312 25.8956 59.904 27.5596 61.088C29.2236 62.272 30.5196 63.888 31.4476 65.936C32.3756 67.952 32.8396 70.176 32.8396 72.608C32.8396 75.008 32.3756 77.28 31.4476 79.424C30.5196 81.536 29.2076 83.248 27.5116 84.56C25.8476 85.84 23.9436 86.48 21.7996 86.48C19.3036 86.48 17.1596 85.968 15.3676 84.944C13.6076 83.888 12.2956 82.272 11.4316 80.096C11.4316 81.92 11.4956 84.848 11.6236 88.88C11.7516 92.784 11.8156 95.536 11.8156 97.136H0.967608C1.15961 91.184 1.25561 84.96 1.25561 78.464C1.25561 71.968 1.15961 65.744 0.967608 59.792H10.1836L11.5756 65.792C12.4716 63.552 13.8156 61.92 15.6076 60.896C17.3996 59.84 19.5116 59.312 21.9436 59.312ZM16.8076 77.84C18.2476 77.84 19.4476 77.392 20.4076 76.496C21.3996 75.568 21.8956 74.368 21.8956 72.896C21.8956 71.264 21.4476 69.936 20.5516 68.912C19.6556 67.888 18.4396 67.376 16.9036 67.376C15.1436 67.376 13.8156 67.808 12.9196 68.672C12.0236 69.504 11.5756 70.912 11.5756 72.896C11.5756 74.016 11.8636 74.96 12.4396 75.728C13.0156 76.464 13.7036 77.008 14.5036 77.36C15.3036 77.68 16.0716 77.84 16.8076 77.84ZM45.4336 66.896C46.7776 62.064 50.1216 59.648 55.4656 59.648C56.3936 59.648 57.2896 59.712 58.1536 59.84L56.6176 70.592C54.3136 69.728 52.4256 69.296 50.9536 69.296C49.1296 69.296 47.7856 69.84 46.9216 70.928C46.0576 72.016 45.6256 73.472 45.6256 75.296V75.248L45.5776 78.416C45.5776 80.688 45.6416 83.216 45.7696 86H34.2976C34.5536 81.392 34.6816 77.04 34.6816 72.944C34.6816 68.848 34.5536 64.464 34.2976 59.792C36.4096 59.888 38.0256 59.936 39.1456 59.936C40.3296 59.936 41.9456 59.888 43.9936 59.792L45.4336 66.896ZM74.0836 86.48C68.6116 86.48 64.5796 85.232 61.9876 82.736C59.4276 80.208 58.1476 76.896 58.1476 72.8C58.1476 68.8 59.4276 65.552 61.9876 63.056C64.5796 60.56 68.6116 59.312 74.0836 59.312C77.7636 59.312 80.8356 59.92 83.2996 61.136C85.7956 62.32 87.6356 63.936 88.8196 65.984C90.0036 68 90.5956 70.272 90.5956 72.8C90.5956 76.928 89.2196 80.24 86.4676 82.736C83.7476 85.232 79.6196 86.48 74.0836 86.48ZM74.2756 78.32C76.3556 78.32 77.9076 77.824 78.9316 76.832C79.9556 75.84 80.4676 74.512 80.4676 72.848C80.4676 71.28 79.9556 70 78.9316 69.008C77.9076 67.984 76.3556 67.472 74.2756 67.472C72.1956 67.472 70.6756 67.968 69.7156 68.96C68.7556 69.952 68.2756 71.248 68.2756 72.848C68.2756 74.512 68.7556 75.84 69.7156 76.832C70.6756 77.824 72.1956 78.32 74.2756 78.32ZM114.707 59.792H123.923C123.763 65.04 123.683 72.496 123.683 82.16C123.683 85.968 122.915 89.088 121.379 91.52C119.875 93.952 117.875 95.712 115.379 96.8C112.883 97.92 110.099 98.48 107.027 98.48C103.987 98.48 101.267 98.032 98.8674 97.136C96.4674 96.272 94.6434 95.104 93.3954 93.632L95.5554 86.288C97.2834 87.28 98.9154 87.984 100.451 88.4C101.987 88.848 103.587 89.072 105.251 89.072C110.691 89.072 113.411 86.768 113.411 82.16C113.411 81.488 113.427 81.008 113.459 80.72C113.459 80.528 113.459 80.272 113.459 79.952C113.491 79.632 113.491 79.216 113.459 78.704C111.827 83.248 108.371 85.52 103.091 85.52C100.947 85.52 99.0274 84.944 97.3314 83.792C95.6674 82.64 94.3714 81.088 93.4434 79.136C92.5154 77.152 92.0514 74.976 92.0514 72.608C92.0514 70.176 92.5154 67.952 93.4434 65.936C94.3714 63.888 95.6674 62.272 97.3314 61.088C98.9954 59.904 100.867 59.312 102.947 59.312C108.355 59.312 111.875 61.216 113.507 65.024L114.707 59.792ZM108.083 77.84C108.819 77.84 109.587 77.68 110.387 77.36C111.187 77.008 111.875 76.464 112.451 75.728C113.027 74.96 113.315 74.016 113.315 72.896C113.315 70.912 112.867 69.504 111.971 68.672C111.075 67.808 109.747 67.376 107.987 67.376C106.451 67.376 105.235 67.888 104.339 68.912C103.443 69.936 102.995 71.264 102.995 72.896C102.995 74.368 103.475 75.568 104.435 76.496C105.427 77.392 106.643 77.84 108.083 77.84ZM136.986 66.896C138.33 62.064 141.674 59.648 147.018 59.648C147.946 59.648 148.842 59.712 149.706 59.84L148.17 70.592C145.866 69.728 143.978 69.296 142.506 69.296C140.682 69.296 139.338 69.84 138.474 70.928C137.61 72.016 137.178 73.472 137.178 75.296V75.248L137.13 78.416C137.13 80.688 137.194 83.216 137.322 86H125.85C126.106 81.392 126.234 77.04 126.234 72.944C126.234 68.848 126.106 64.464 125.85 59.792C127.962 59.888 129.578 59.936 130.698 59.936C131.882 59.936 133.498 59.888 135.546 59.792L136.986 66.896ZM175.572 74H159.924C160.18 75.408 160.804 76.56 161.796 77.456C162.82 78.32 164.26 78.752 166.116 78.752C167.46 78.752 168.724 78.496 169.908 77.984C171.092 77.44 172.036 76.688 172.74 75.728C174.884 76.784 177.732 77.92 181.284 79.136C180.292 81.376 178.484 83.168 175.86 84.512C173.268 85.824 169.876 86.48 165.684 86.48C160.244 86.48 156.212 85.232 153.588 82.736C150.996 80.208 149.7 76.896 149.7 72.8C149.7 68.8 150.996 65.552 153.588 63.056C156.18 60.56 160.212 59.312 165.684 59.312C168.948 59.312 171.78 59.856 174.18 60.944C176.58 62.032 178.42 63.552 179.7 65.504C180.98 67.424 181.62 69.632 181.62 72.128C181.62 72.96 181.588 73.584 181.524 74H175.572ZM166.356 66.56C164.756 66.56 163.444 66.864 162.42 67.472C161.396 68.08 160.676 68.912 160.26 69.968H171.588C171.204 68.944 170.58 68.128 169.716 67.52C168.852 66.88 167.732 66.56 166.356 66.56ZM198.545 86.48C195.857 86.48 193.121 86.112 190.337 85.376C187.585 84.608 184.993 83.456 182.561 81.92L187.601 75.056C189.073 76.112 190.849 76.944 192.929 77.552C195.009 78.128 196.801 78.416 198.305 78.416C199.745 78.416 200.849 78.224 201.617 77.84C202.417 77.424 202.817 76.896 202.817 76.256C202.817 75.744 202.625 75.344 202.241 75.056C201.857 74.768 201.329 74.624 200.657 74.624C200.241 74.624 199.761 74.64 199.217 74.672C198.705 74.704 198.289 74.736 197.969 74.768C196.305 74.96 194.593 75.056 192.833 75.056C189.985 75.056 187.665 74.528 185.873 73.472C184.113 72.384 183.233 70.624 183.233 68.192C183.233 65.376 184.561 63.2 187.217 61.664C189.873 60.096 193.777 59.312 198.929 59.312C201.457 59.312 204.001 59.68 206.561 60.416C209.153 61.12 211.441 62.192 213.425 63.632L207.905 69.2C206.081 68.24 204.369 67.568 202.769 67.184C201.201 66.768 199.617 66.56 198.017 66.56C196.897 66.56 195.937 66.784 195.137 67.232C194.337 67.68 193.937 68.192 193.937 68.768C193.937 69.216 194.097 69.568 194.417 69.824C194.769 70.08 195.217 70.208 195.761 70.208C196.305 70.208 197.057 70.16 198.017 70.064C200.353 69.904 202.097 69.824 203.249 69.824C206.577 69.824 209.153 70.384 210.977 71.504C212.801 72.624 213.713 74.336 213.713 76.64C213.713 80.096 212.369 82.608 209.681 84.176C206.993 85.712 203.281 86.48 198.545 86.48ZM230.657 86.48C227.969 86.48 225.233 86.112 222.449 85.376C219.697 84.608 217.105 83.456 214.673 81.92L219.713 75.056C221.185 76.112 222.961 76.944 225.041 77.552C227.121 78.128 228.913 78.416 230.417 78.416C231.857 78.416 232.961 78.224 233.729 77.84C234.529 77.424 234.929 76.896 234.929 76.256C234.929 75.744 234.737 75.344 234.353 75.056C233.969 74.768 233.441 74.624 232.769 74.624C232.353 74.624 231.873 74.64 231.329 74.672C230.817 74.704 230.401 74.736 230.081 74.768C228.417 74.96 226.705 75.056 224.945 75.056C222.097 75.056 219.777 74.528 217.985 73.472C216.225 72.384 215.345 70.624 215.345 68.192C215.345 65.376 216.673 63.2 219.329 61.664C221.985 60.096 225.889 59.312 231.041 59.312C233.569 59.312 236.113 59.68 238.673 60.416C241.265 61.12 243.553 62.192 245.537 63.632L240.017 69.2C238.193 68.24 236.481 67.568 234.881 67.184C233.313 66.768 231.729 66.56 230.129 66.56C229.009 66.56 228.049 66.784 227.249 67.232C226.449 67.68 226.049 68.192 226.049 68.768C226.049 69.216 226.209 69.568 226.529 69.824C226.881 70.08 227.329 70.208 227.873 70.208C228.417 70.208 229.169 70.16 230.129 70.064C232.465 69.904 234.209 69.824 235.361 69.824C238.689 69.824 241.265 70.384 243.089 71.504C244.913 72.624 245.825 74.336 245.825 76.64C245.825 80.096 244.481 82.608 241.793 84.176C239.105 85.712 235.393 86.48 230.657 86.48ZM280.345 74H264.697C264.953 75.408 265.577 76.56 266.569 77.456C267.593 78.32 269.033 78.752 270.889 78.752C272.233 78.752 273.497 78.496 274.681 77.984C275.865 77.44 276.809 76.688 277.513 75.728C279.657 76.784 282.505 77.92 286.057 79.136C285.065 81.376 283.257 83.168 280.633 84.512C278.041 85.824 274.649 86.48 270.457 86.48C265.017 86.48 260.985 85.232 258.361 82.736C255.769 80.208 254.473 76.896 254.473 72.8C254.473 68.8 255.769 65.552 258.361 63.056C260.953 60.56 264.985 59.312 270.457 59.312C273.721 59.312 276.553 59.856 278.953 60.944C281.353 62.032 283.193 63.552 284.473 65.504C285.753 67.424 286.393 69.632 286.393 72.128C286.393 72.96 286.361 73.584 286.297 74H280.345ZM271.129 66.56C269.529 66.56 268.217 66.864 267.193 67.472C266.169 68.08 265.449 68.912 265.033 69.968H276.361C275.977 68.944 275.353 68.128 274.489 67.52C273.625 66.88 272.505 66.56 271.129 66.56ZM317.477 59.792C314.021 69.104 310.949 77.84 308.261 86H293.237C290.357 77.264 287.269 68.528 283.973 59.792H295.253L300.821 79.568L306.341 59.792H317.477ZM340.49 74H324.842C325.098 75.408 325.722 76.56 326.714 77.456C327.738 78.32 329.178 78.752 331.034 78.752C332.378 78.752 333.642 78.496 334.826 77.984C336.01 77.44 336.954 76.688 337.658 75.728C339.802 76.784 342.65 77.92 346.202 79.136C345.21 81.376 343.402 83.168 340.778 84.512C338.186 85.824 334.794 86.48 330.602 86.48C325.162 86.48 321.13 85.232 318.506 82.736C315.914 80.208 314.618 76.896 314.618 72.8C314.618 68.8 315.914 65.552 318.506 63.056C321.098 60.56 325.13 59.312 330.602 59.312C333.866 59.312 336.698 59.856 339.098 60.944C341.498 62.032 343.338 63.552 344.618 65.504C345.898 67.424 346.538 69.632 346.538 72.128C346.538 72.96 346.506 73.584 346.442 74H340.49ZM331.274 66.56C329.674 66.56 328.362 66.864 327.338 67.472C326.314 68.08 325.594 68.912 325.178 69.968H336.506C336.122 68.944 335.498 68.128 334.634 67.52C333.77 66.88 332.65 66.56 331.274 66.56ZM359.095 66.896C360.439 62.064 363.783 59.648 369.127 59.648C370.055 59.648 370.951 59.712 371.815 59.84L370.279 70.592C367.975 69.728 366.087 69.296 364.615 69.296C362.791 69.296 361.447 69.84 360.583 70.928C359.719 72.016 359.287 73.472 359.287 75.296V75.248L359.239 78.416C359.239 80.688 359.303 83.216 359.431 86H347.959C348.215 81.392 348.343 77.04 348.343 72.944C348.343 68.848 348.215 64.464 347.959 59.792C350.071 59.888 351.687 59.936 352.807 59.936C353.991 59.936 355.607 59.888 357.655 59.792L359.095 66.896ZM401.388 59.792L400.284 62.576C397.244 70.672 394.06 78.48 390.732 86C389.004 89.84 386.508 92.912 383.244 95.216C379.98 97.552 375.884 98.672 370.956 98.576C370.348 95.92 369.836 93.84 369.42 92.336C369.036 90.864 368.524 89.376 367.884 87.872C369.644 88.288 371.292 88.496 372.828 88.496C375.324 88.496 377.308 87.968 378.78 86.912C377.628 83.488 376.268 79.808 374.7 75.872C373.132 71.936 370.86 66.576 367.884 59.792H379.26C379.644 61.392 380.172 63.248 380.844 65.36C381.516 67.472 382.188 69.504 382.86 71.456C383.052 72.064 383.356 72.992 383.772 74.24C384.22 75.456 384.572 76.48 384.828 77.312L386.076 73.52C388.476 66.576 389.9 62 390.348 59.792H401.388ZM32.3596 96.656C32.1676 102.608 32.0716 108.832 32.0716 115.328C32.0716 121.76 32.1676 127.984 32.3596 134H21.5116L21.6556 128.24C20.7276 130.384 19.3836 131.968 17.6236 132.992C15.8636 133.984 13.7836 134.48 11.3836 134.48C9.30361 134.48 7.43161 133.888 5.76761 132.704C4.10361 131.52 2.80761 129.92 1.87961 127.904C0.951608 125.856 0.487607 123.616 0.487607 121.184C0.487607 118.784 0.951608 116.528 1.87961 114.416C2.80761 112.272 4.10361 110.56 5.76761 109.28C7.46361 107.968 9.38361 107.312 11.5276 107.312C14.0236 107.312 16.1516 107.84 17.9116 108.896C19.7036 109.92 21.0316 111.52 21.8956 113.696C21.8956 111.872 21.8316 108.944 21.7036 104.912C21.5756 101.008 21.5116 98.256 21.5116 96.656H32.3596ZM16.4236 126.416C17.9916 126.416 19.2716 125.984 20.2636 125.12C21.2556 124.224 21.7516 122.816 21.7516 120.896C21.7516 119.2 21.2556 117.952 20.2636 117.152C19.2716 116.352 18.0236 115.952 16.5196 115.952C15.0796 115.952 13.8636 116.416 12.8716 117.344C11.9116 118.24 11.4316 119.424 11.4316 120.896C11.4316 122.528 11.8796 123.856 12.7756 124.88C13.6716 125.904 14.8876 126.416 16.4236 126.416ZM65.0656 126.032C65.0656 127.12 65.1936 127.888 65.4496 128.336C65.7056 128.784 66.2176 129.104 66.9856 129.296L66.7936 133.808C65.7696 133.968 64.8736 134.08 64.1056 134.144C63.3696 134.208 62.3776 134.24 61.1296 134.24C58.3776 134.24 56.5536 133.632 55.6576 132.416C54.7616 131.168 54.3136 129.584 54.3136 127.664V126.464C53.3856 129.088 52.0256 131.04 50.2336 132.32C48.4736 133.6 46.2176 134.24 43.4656 134.24C40.2656 134.24 37.8496 133.6 36.2176 132.32C34.6176 131.04 33.8176 129.136 33.8176 126.608C33.8176 124.528 34.5056 122.896 35.8816 121.712C37.2576 120.528 39.3856 119.712 42.2656 119.264C39.8336 117.536 37.4016 116.032 34.9696 114.752C36.8896 112.32 39.0816 110.48 41.5456 109.232C44.0096 107.952 47.0016 107.312 50.5216 107.312C55.4496 107.312 59.0976 108.384 61.4656 110.528C63.8656 112.64 65.0656 115.904 65.0656 120.32V126.032ZM51.5296 115.76C49.8976 115.76 48.4576 116.032 47.2096 116.576C45.9616 117.12 44.8416 117.936 43.8496 119.024C45.7696 118.8 48.1696 118.688 51.0496 118.688C52.2336 118.688 53.0656 118.544 53.5456 118.256C54.0256 117.968 54.2656 117.6 54.2656 117.152C54.2656 116.768 54.0256 116.448 53.5456 116.192C53.0656 115.904 52.3936 115.76 51.5296 115.76ZM46.4896 126.416C48.2816 126.416 49.8976 126.08 51.3376 125.408C52.7776 124.704 53.7696 123.792 54.3136 122.672V121.424C53.5456 121.808 52.6976 122.112 51.7696 122.336C50.8416 122.528 49.7216 122.72 48.4096 122.912L46.6816 123.2C44.8896 123.552 43.9936 124.16 43.9936 125.024C43.9936 125.952 44.8256 126.416 46.4896 126.416ZM99.5397 107.792L98.4357 110.576C95.3957 118.672 92.2117 126.48 88.8837 134C87.1557 137.84 84.6597 140.912 81.3957 143.216C78.1317 145.552 74.0357 146.672 69.1077 146.576C68.4997 143.92 67.9877 141.84 67.5717 140.336C67.1877 138.864 66.6757 137.376 66.0357 135.872C67.7957 136.288 69.4437 136.496 70.9797 136.496C73.4757 136.496 75.4597 135.968 76.9317 134.912C75.7797 131.488 74.4197 127.808 72.8517 123.872C71.2837 119.936 69.0117 114.576 66.0357 107.792H77.4117C77.7957 109.392 78.3237 111.248 78.9957 113.36C79.6677 115.472 80.3397 117.504 81.0117 119.456C81.2037 120.064 81.5077 120.992 81.9237 122.24C82.3717 123.456 82.7237 124.48 82.9797 125.312L84.2277 121.52C86.6277 114.576 88.0517 110 88.4997 107.792H99.5397Z" fill="black"/>
</svg>
